<svg xmlns="http://www.w3.org/2000/svg" viewBox="0 0 566 603.18"><defs><style>.cls-1{fill:#fff;}</style></defs><title>blueprint</title><g id="Layer_2" data-name="Layer 2"><g id="Layer_1-2" data-name="Layer 1"><path class="cls-1" d="M294.18,372.76c-3.28,0-6.58-.09-9.88-.26l-1.41-.08-.3-29.41V343l5.8-91.75,12,.76,1-15.4-12-.76,2.27-36,1.44,0h.28a12.6,12.6,0,0,0,1.31-25.14l-1.44-.15,2.11-33.34,12,.76.9-14.23-12-.76,5.88-93.22L306.57,0,308,.11A185.91,185.91,0,0,1,429.15,57.43l31.77-28a3.88,3.88,0,0,1,5.49.34L471,35a3.88,3.88,0,0,1-.34,5.49l-31.77,28a186.56,186.56,0,0,1-17,253.63l29,32.92a3.9,3.9,0,0,1-.35,5.5l-5.23,4.61a3.89,3.89,0,0,1-5.5-.35l-29.09-33A186,186,0,0,1,294.18,372.76Zm-8.31-3.19a183.06,183.06,0,0,0,124.09-41l1.12-.91,31,35.17a.9.9,0,0,0,1.26.08l5.24-4.61a.91.91,0,0,0,.08-1.26l-30.94-35.12,1.07-1A183.55,183.55,0,0,0,435.68,69.3l-.93-1.12,33.94-29.92a.9.9,0,0,0,.08-1.26l-4.61-5.23a.9.9,0,0,0-1.26-.08L429,61.6l-1-1.07A182.92,182.92,0,0,0,309.17,3.21L305.1,34.12l-5.69,90.08,12,.76-1.27,20.21-12-.76L296.4,172a15.6,15.6,0,0,1-1.95,30.86L292.54,233l12,.76-1.35,21.39-12-.76-5.6,88.7Zm8.82-25.91a.06.06,0,0,0-.06.06h.06v-.06Zm3.57-53.4h-.19a2.78,2.78,0,1,1,.19,0Zm0-3s-.07,0-.07.06h.06v-.07ZM315.14,216a5,5,0,0,1-3.78-1.71l-6-6.76a5,5,0,1,1,7.55-6.65l6,6.76a5,5,0,0,1-.45,7.1h0A5,5,0,0,1,315.14,216Zm-6-13.83a2,2,0,0,0-1.52,3.37l6,6.77a2,2,0,0,0,3.05-2.68l-6-6.77A2,2,0,0,0,309.17,202.18Zm2.21-24.67h-.33a5,5,0,0,1-3-8.79l6.77-6a5,5,0,0,1,3.64-1.25,5,5,0,0,1,3,8.79l-6.77,6A5,5,0,0,1,311.38,177.51Zm6.75-13a2,2,0,0,0-1.34.51L310,171a2,2,0,0,0-.19,2.86,2,2,0,0,0,1.4.68,2,2,0,0,0,1.47-.49l6.77-6a2,2,0,0,0,.18-2.86,2,2,0,0,0-1.4-.68Zm-8.88-70.6h-.19A2.93,2.93,0,1,1,311.45,89a2.89,2.89,0,0,1,.73,2.12A2.94,2.94,0,0,1,309.25,93.89Zm0-3a.09.09,0,0,0-.07.06h.07v-.07Zm3.56-53.4h-.19a2.94,2.94,0,0,1-2.74-3.12,2.94,2.94,0,1,1,2.93,3.12Zm-.07-2.94h.14l-.07-.07A.11.11,0,0,0,312.74,34.55Z"/><path class="cls-1" d="M444.23,358.41a1.77,1.77,0,0,1-2.49-.16l-18.86-21.4a1.77,1.77,0,0,1,2.65-2.34l18.86,21.41A1.77,1.77,0,0,1,444.23,358.41Z"/><path class="cls-1" d="M464.49,36a1.78,1.78,0,0,1-.16,2.5L442.92,57.33a1.76,1.76,0,0,1-2.33-2.65L462,35.82A1.78,1.78,0,0,1,464.49,36Z"/><path class="cls-1" d="M270.81,372.76A185.93,185.93,0,0,1,155,332.39l-28.93,33.15a3.86,3.86,0,0,1-2.67,1.32,3.82,3.82,0,0,1-2.83-.95l-5.25-4.58a3.9,3.9,0,0,1-.37-5.5l28.84-33.06A186.56,186.56,0,0,1,125.51,69.22L93.61,41.38a3.89,3.89,0,0,1-.38-5.49l4.59-5.26a3.89,3.89,0,0,1,5.49-.37l31.9,27.83A186,186,0,0,1,256.1.18l1.41-.12,4.63,33.86L268.48,127l-12,.82,1,14.22,12-.81,2.27,33.33-1.43.16A12.6,12.6,0,0,0,272,199.85l1.44,0,2.45,36-12,.82,1,15.4,12-.82L283.18,343,283,372.37l-1.4.08C278,372.65,274.4,372.76,270.81,372.76ZM154.62,328.25l1.12.9A183.05,183.05,0,0,0,280,369.53l.14-26.48-6-88.67-12,.82-1.45-21.39,12-.81-2.05-30.18a15.6,15.6,0,0,1-2.1-30.85l-1.88-27.54-12,.82L253.25,125l12-.82-6.13-90-4.24-30.9A183,183,0,0,0,136.42,61.2l-1,1.06L101.34,32.52a.9.9,0,0,0-1.26.09l-4.59,5.25a.9.9,0,0,0,.09,1.26l34.09,29.75L128.75,70a183.57,183.57,0,0,0,18.13,251.56l1.08,1L117.2,357.8a.92.92,0,0,0,.08,1.27l5.26,4.58a.9.9,0,0,0,.65.22.89.89,0,0,0,.61-.3Zm116.46,15.41h0v.13l.06-.07S271.12,343.66,271.08,343.66Zm-3.84-53.38a2.91,2.91,0,0,1-2.92-2.74,2.89,2.89,0,0,1,.71-2.12,2.93,2.93,0,1,1,2.41,4.85Zm0-3h0v.13l.06-.07S267.27,287.28,267.24,287.28ZM250,216.11a5,5,0,0,1-3.78-8.34l5.93-6.79a5,5,0,0,1,7.09-.48,5,5,0,0,1,.49,7.09l-5.93,6.8a5,5,0,0,1-3.45,1.71Zm5.94-13.85a2,2,0,0,0-1.53.69l-5.93,6.8a2,2,0,0,0-.49,1.47,2,2,0,0,0,.68,1.39,2,2,0,0,0,2.87-.19l5.93-6.8a2,2,0,0,0-.2-2.86A2,2,0,0,0,255.92,202.26Zm-2.36-24.67a5,5,0,0,1-3.3-1.23l-6.8-5.93a5.06,5.06,0,0,1-.48-7.1h0a5,5,0,0,1,7.1-.48l6.79,5.93a5,5,0,0,1-3.31,8.81Zm-6.79-13a2,2,0,0,0-1.53.69h0a2,2,0,0,0,.2,2.87l6.79,5.93a2,2,0,0,0,3.36-1.67,2,2,0,0,0-.69-1.39l-6.8-5.93A2,2,0,0,0,246.77,164.61ZM255.28,94a3,3,0,0,1-2.93-2.74h0a2.94,2.94,0,0,1,2.73-3.13,3,3,0,0,1,2.13.72A2.93,2.93,0,0,1,255.48,94Zm0-3h0v.13l.06-.07A.07.07,0,0,0,255.28,91Zm-3.84-53.38a2.93,2.93,0,0,1-2.92-2.74h0a2.93,2.93,0,0,1,2.72-3.12,3,3,0,0,1,2.13.71,2.94,2.94,0,0,1-1.73,5.14Zm0-3h0v.13l.06-.07S251.48,34.59,251.44,34.59Z"/><path class="cls-1" d="M121.45,356.66l18.76-21.5a1.76,1.76,0,1,1,2.66,2.32L124.11,359a1.76,1.76,0,1,1-2.66-2.32Z"/><path class="cls-1" d="M102.26,36.65l21.5,18.76a1.76,1.76,0,1,1-2.32,2.65L99.94,39.31a1.78,1.78,0,0,1-.17-2.49A1.76,1.76,0,0,1,102.26,36.65Z"/><path class="cls-1" d="M292.89,338.94H272.72a4.73,4.73,0,0,0-4.83,4.62v.6a4.74,4.74,0,0,0,4.83,4.63h20.17a4.73,4.73,0,0,0,4.82-4.63v-.6A4.73,4.73,0,0,0,292.89,338.94Zm-17.76,7.66h-3l-1.5-2.6,1.5-2.6h3l1.5,2.6Zm19,0h-3l-1.5-2.6,1.5-2.6h3l1.5,2.6Z"/><path class="cls-1" d="M278.78,580.23c-51.6,0-93.58-30-93.58-67s42-67,93.58-67,93.59,30,93.59,67S330.39,580.23,278.78,580.23Zm0-133.16c-51.17,0-92.81,29.69-92.81,66.19s41.64,66.19,92.81,66.19,92.82-29.69,92.82-66.19S330,447.07,278.78,447.07Z"/><path class="cls-1" d="M278.79,581.23c-52.16,0-94.59-30.49-94.59-68s42.43-68,94.59-68,94.58,30.49,94.58,68S330.94,581.23,278.79,581.23Zm0-133.16c-50.63,0-91.82,29.24-91.82,65.19s41.19,65.19,91.82,65.19,91.81-29.24,91.81-65.19S329.41,448.07,278.79,448.07Z"/><path class="cls-1" d="M278.78,584.08c-51.6,0-93.58-30.9-93.58-68.89s42-68.89,93.58-68.89,93.59,30.9,93.59,68.89S330.39,584.08,278.78,584.08Zm0-137c-51.17,0-92.81,30.56-92.81,68.12s41.64,66.71,92.81,66.71,92.82-29.15,92.82-66.71S330,447.07,278.78,447.07Z"/><path class="cls-1" d="M278.79,585.08c-52.16,0-94.59-31.35-94.59-69.89s42.43-69.89,94.59-69.89,94.58,31.35,94.58,69.89S330.94,585.08,278.79,585.08Zm-28.7-5.34a124.93,124.93,0,0,0,57.39,0,131.87,131.87,0,0,1-57.39,0Zm28.7-131.67c-50.63,0-91.82,30.11-91.82,67.12,0,17.75,9.52,34.31,26.8,46.62s40.35,19.09,65,19.09,47.75-6.78,65-19.09,26.8-28.87,26.8-46.62C370.6,478.18,329.41,448.07,278.79,448.07Z"/><path class="cls-1" d="M278.15,519.21c-27.75,0-50.34-16.18-50.34-36.07s22.59-36.07,50.34-36.07,50.34,16.18,50.34,36.07S305.91,519.21,278.15,519.21Zm0-71.37c-27.33,0-49.56,15.84-49.56,35.3s22.23,35.3,49.56,35.3,49.57-15.84,49.57-35.3S305.48,447.84,278.15,447.84Z"/><path class="cls-1" d="M278.15,520.21c-28.31,0-51.34-16.63-51.34-37.07s23-37.07,51.34-37.07,51.34,16.63,51.34,37.07S306.46,520.21,278.15,520.21Zm0-71.37c-26.78,0-48.56,15.39-48.56,34.3s21.78,34.3,48.56,34.3,48.57-15.39,48.57-34.3S304.93,448.84,278.15,448.84Z"/><path class="cls-1" d="M277.67,515.87c-26.21,0-47.54-14.93-47.54-33.27s21.33-33.27,47.54-33.27,47.55,14.92,47.55,33.27S303.89,515.87,277.67,515.87Zm0-65.77c-25.79,0-46.77,14.58-46.77,32.5s22,34.57,47.81,34.57,47.82-16.65,47.82-34.57S303.47,450.1,277.67,450.1Z"/><path class="cls-1" d="M278.71,518.17a59.32,59.32,0,0,1-32-9.23c-10.71-6.29-17.53-15.76-17.53-26.34,0-18.9,21.78-34.27,48.54-34.27,14.69,0,27.87,4.62,36.78,11.92,8.08,6,13.08,13.85,13.08,22.35C327.53,501.55,304.72,518.17,278.71,518.17Zm-28.14-9.35a61.24,61.24,0,0,0,27.1,6.05c25.67,0,46.55-14.48,46.55-32.27,0-8-4.25-15.38-11.27-21-8.83-6.39-21.48-10.47-35.28-10.47-25.24,0-45.77,14.13-45.77,31.5C231.9,492.81,239.44,502.5,250.57,508.82Z"/><path class="cls-1" d="M275.76,549.43c-13.12,0-24.47-3.72-33.89-11.14-13.67-10.76-18.23-25.68-18.23-28.72,0-5.88,4-25.67,4.18-26.51l.76.16c0,.2-4.17,20.54-4.17,26.35,0,3,4.48,17.52,17.94,28.12,13.73,10.81,31.66,13.65,53.28,8.43,17.87-4.32,29.58-12.36,34.8-23.92,8.14-18.05-2.56-38.67-2.67-38.88l.68-.36c.12.21,11,21.16,2.69,39.55-5.32,11.79-17.2,20-35.32,24.36A85.57,85.57,0,0,1,275.76,549.43Z"/><path class="cls-1" d="M275.76,550.43h0c-13.33,0-24.94-3.82-34.51-11.35a54.87,54.87,0,0,1-14.51-17.58c-2.67-5.1-4.11-10-4.11-11.93,0-6,4-25.86,4.21-26.71l.2-1,2.72.56-.2,1c0,.2-4.15,20.43-4.15,26.15,0,2.86,4.39,17,17.55,27.33,13.49,10.62,31.12,13.39,52.43,8.25,17.56-4.24,29-12.1,34.12-23.36,7.93-17.56-2.53-37.8-2.63-38l-.47-.89,2.45-1.29.47.88c.11.22,11.17,21.67,2.71,40.43-5.45,12.09-17.56,20.47-36,24.92a86.87,86.87,0,0,1-20.28,2.59Z"/><path class="cls-1" d="M234.05,494.8l-.62-.46c.15-.21,15.69-21.13,46.66-19.09,16.13,1.07,27,5.49,33.23,9,6.8,3.82,9.73,7.35,9.85,7.5l-.59.49c-.12-.14-12-14.21-42.55-16.23a56,56,0,0,0-34.56,8.62A46.36,46.36,0,0,0,234.05,494.8Z"/><path class="cls-1" d="M234.27,496.19,232,494.56l.6-.81c.16-.21,16.25-21.56,47.53-19.49,16.33,1.07,27.32,5.56,33.66,9.12,6.82,3.84,9.82,7.36,10.14,7.74l.63.78-2.14,1.75-.63-.76s-3-3.53-9.66-7.22c-6.09-3.38-16.62-7.62-32.18-8.65a55,55,0,0,0-34,8.46,44.87,44.87,0,0,0-11.16,9.91Z"/><path class="cls-1" d="M207.18,506.61c-2.83,0-5.14-1.55-5.14-3.47s2.31-3.47,5.14-3.47,5.15,1.56,5.15,3.47S210,506.61,207.18,506.61Zm0-6.17c-2.41,0-4.37,1.22-4.37,2.7s2,2.7,4.37,2.7,4.37-1.21,4.37-2.7S209.59,500.44,207.18,500.44Z"/><path class="cls-1" d="M207.18,507.61c-3.44,0-6.14-2-6.14-4.47s2.7-4.47,6.14-4.47,6.15,2,6.15,4.47S210.63,507.61,207.18,507.61Zm0-6.17c-1.93,0-3.37.9-3.37,1.7s1.44,1.7,3.37,1.7,3.37-.89,3.37-1.7S209.11,501.44,207.18,501.44Z"/><path class="cls-1" d="M350.88,517.5c-2.84,0-5.14-1.55-5.14-3.47s2.3-3.47,5.14-3.47S356,512.12,356,514,353.71,517.5,350.88,517.5Zm0-6.17c-2.41,0-4.37,1.21-4.37,2.7s2,2.7,4.37,2.7,4.37-1.21,4.37-2.7S353.29,511.33,350.88,511.33Z"/><path class="cls-1" d="M350.88,518.5c-3.44,0-6.14-2-6.14-4.47s2.7-4.47,6.14-4.47,6.14,2,6.14,4.47S354.32,518.5,350.88,518.5Zm0-6.17c-1.93,0-3.37.9-3.37,1.7s1.44,1.7,3.37,1.7,3.37-.9,3.37-1.7S352.81,512.33,350.88,512.33Z"/><path class="cls-1" d="M268.31,567.19c-2.84,0-5.14-2-5.14-4.35s2.3-4.35,5.14-4.35,5.14,2,5.14,4.35S271.14,567.19,268.31,567.19Zm0-7.93c-2.41,0-4.37,1.61-4.37,3.58s2,3.58,4.37,3.58,4.37-1.61,4.37-3.58S270.72,559.26,268.31,559.26Z"/><path class="cls-1" d="M268.31,568.19c-3.39,0-6.14-2.4-6.14-5.35s2.75-5.35,6.14-5.35,6.14,2.4,6.14,5.35S271.69,568.19,268.31,568.19Zm0-7.93c-1.86,0-3.37,1.16-3.37,2.58s1.51,2.58,3.37,2.58,3.37-1.16,3.37-2.58S270.17,560.26,268.31,560.26Z"/><path class="cls-1" d="M151.7,504.32v-1.27a10,10,0,0,0-10.22-9.8H98.73a10,10,0,0,0-10.22,9.8v1.27a10,10,0,0,0,10.22,9.8h42.75A10,10,0,0,0,151.7,504.32Zm-56.47-.57a5.84,5.84,0,1,1,5.83,5.58A5.72,5.72,0,0,1,95.23,503.75Zm39.68,0a5.84,5.84,0,1,1,5.83,5.58A5.72,5.72,0,0,1,134.91,503.75Z"/><path class="cls-1" d="M74,504.32v-1.27a10,10,0,0,0-10.22-9.8H21.06a10,10,0,0,0-10.22,9.8v1.27a10,10,0,0,0,10.22,9.8H63.81A10,10,0,0,0,74,504.32Zm-56.47-.57a5.72,5.72,0,0,1,5.84-5.58,5.59,5.59,0,1,1,0,11.16A5.72,5.72,0,0,1,17.56,503.75Zm39.69,0a5.84,5.84,0,1,1,5.83,5.58A5.71,5.71,0,0,1,57.25,503.75Z"/><path class="cls-1" d="M151.7,591v-1.28a10,10,0,0,0-10.22-9.79H98.73a10,10,0,0,0-10.22,9.79V591a10,10,0,0,0,10.22,9.8h42.75A10,10,0,0,0,151.7,591Zm-56.47-.57a5.84,5.84,0,1,1,5.83,5.58A5.72,5.72,0,0,1,95.23,590.42Zm39.68,0a5.84,5.84,0,1,1,5.83,5.58A5.72,5.72,0,0,1,134.91,590.42Z"/><path class="cls-1" d="M74,591v-1.28a10,10,0,0,0-10.22-9.79H21.06a10,10,0,0,0-10.22,9.79V591a10,10,0,0,0,10.22,9.8H63.81A10,10,0,0,0,74,591Zm-56.47-.57A5.84,5.84,0,1,1,23.4,596,5.73,5.73,0,0,1,17.56,590.42Zm39.69,0A5.84,5.84,0,1,1,63.08,596,5.72,5.72,0,0,1,57.25,590.42Z"/><path class="cls-1" d="M554.7,588.79a14.39,14.39,0,1,0-14.39,14.39A14.4,14.4,0,0,0,554.7,588.79Zm-19.56,0a5.17,5.17,0,1,1,5.17,5.16A5.17,5.17,0,0,1,535.14,588.79Z"/><path class="cls-1" d="M512.9,588.79a14.4,14.4,0,1,0-14.39,14.39A14.4,14.4,0,0,0,512.9,588.79Zm-19.56,0a5.17,5.17,0,1,1,5.17,5.16A5.16,5.16,0,0,1,493.34,588.79Z"/><path class="cls-1" d="M471.1,588.79a14.4,14.4,0,1,0-14.4,14.39A14.4,14.4,0,0,0,471.1,588.79Zm-19.56,0A5.17,5.17,0,1,1,456.7,594,5.16,5.16,0,0,1,451.54,588.79Z"/><path class="cls-1" d="M428.27,588.79a14.39,14.39,0,1,0-14.39,14.39A14.4,14.4,0,0,0,428.27,588.79Zm-19.56,0a5.17,5.17,0,1,1,5.17,5.16A5.17,5.17,0,0,1,408.71,588.79Z"/><polygon class="cls-1" points="566 446.58 564 446.58 564 428.25 390.33 428.25 390.33 445.92 388.33 445.92 388.33 426.25 566 426.25 566 446.58"/><polygon class="cls-1" points="2 445.92 0 445.92 0 426.25 163.33 426.25 163.33 445.58 161.33 445.58 161.33 428.25 2 428.25 2 445.92"/><rect class="cls-1" x="441" y="390.93" width="2" height="35.65"/><polygon class="cls-1" points="451.97 393.85 442 376.58 432.03 393.85 451.97 393.85"/><path class="cls-1" d="M430.57,455.33l0-.48-.48,0a3,3,0,0,1-1.74-.37.31.31,0,0,1-.11-.25v-8.33a3.68,3.68,0,0,0-3.68-3.67H407.38a3.68,3.68,0,0,0-3.68,3.67v1.74l0,6.74a.3.3,0,0,1-.07.1,3,3,0,0,1-1.74.37l-.49,0,0,.48a2.22,2.22,0,0,0,.52,1.59,1.93,1.93,0,0,0,1.47.58h6.26l.06,2.85L406.88,462l2.82,1.68,0,1.72-2.85,1.73,2.91,1.73,0,1.61-2.94,1.78,3,1.79,0,1.5-3,1.84,3.1,1.84,0,1.39-3.13,1.89,3.2,1.9,0,1.28-3.22,1.95,3.29,2,0,1.23-3.13,1.9,3.2,1.9,0,1.35-3,1.82,3.08,1.83,0,1.61-2.58,1.55,2.64,1.57,0,2L407.8,508l2.74,1.63,0,2.28-2.78,1.68,2.84,1.69,0,1.91-2.88,1.73,2.94,1.75,0,2-3,1.79,3,1.81,0,2h-.12l-3,1.79,3,1.8H411l0,2-.16,0h-.11l-2.91,1.75,3,1.78.17,0h.09l0,2-.24,0h-.12l-2.92,1.77,3,1.78.17,0,.18,0,.21,11.74V555l3.06,3.57a1.81,1.81,0,0,0,1.28.62h.1a1.84,1.84,0,0,0,1.28-.54l3.36-4.07.26-13.55c1.54-.57,2.54-1.23,2.44-2l0-.22-2.34-1.6,0-1.84c1.42-.55,2.35-1.19,2.25-1.9l0-.22-2.15-1.48,0-2c1.57-.58,2.59-1.25,2.48-2l0-.22L421,526l0-1.71c1.74-.61,2.9-1.32,2.79-2.13l0-.22-2.68-1.84,0-1.43c1.68-.6,2.79-1.3,2.68-2.1l0-.22-2.57-1.76,0-1.29c1.62-.59,2.69-1.28,2.58-2.06l0-.22-2.47-1.7,0-1.65c1.56-.58,2.57-1.25,2.47-2l0-.22-2.36-1.63,0-1.26c1.78-.62,3-1.35,2.85-2.18l0-.22-2.74-1.88,0-.8c1.73-.63,2.86-1.36,2.75-2.18l0-.22-2.64-1.81,0-.92c2.39-.84,2.73-1.55,2.65-2.16l0-.22-2.54-1.74v-1c2.21-.85,2.63-1.61,2.56-2.12l0-.22-2.45-1.68,0-1.14c2.12-.84,2.53-1.58,2.46-2.08l0-.22-2.35-1.61,0-1.25c2-.83,2.43-1.55,2.36-2.05l0-.22L422,473l0-1.36c1.95-.8,2.32-1.52,2.26-2l0-.22L422.11,468l0-1.47c1.86-.78,2.22-1.48,2.16-2l0-.22-2.06-1.41,0-1.57c1.77-.77,2.12-1.46,2.06-1.92l0-.22-2-1.35v-.34h6.25a1.94,1.94,0,0,0,1.48-.58A2.22,2.22,0,0,0,430.57,455.33ZM424,450.22c0-1.3.08-2.5.08-3.06s1-1.38,1.91-1.38a.88.88,0,0,1,.75.34,2.54,2.54,0,0,1,.38,1.55l0,6.86-3.29,0C423.93,453.24,424,451.71,424,450.22Zm3.05-5.13a1.89,1.89,0,0,0-1.06-.31,3.29,3.29,0,0,0-2.17,1,3.41,3.41,0,0,0-.43-1.51,3.31,3.31,0,0,0-1.46-1h2.59A2.66,2.66,0,0,1,427.05,445.09Zm-22.39,9.33a1,1,0,0,0,0-.17v-6.59a2.52,2.52,0,0,1,.38-1.54.88.88,0,0,1,.74-.34c.88,0,1.92.85,1.92,1.38v.11c-.05.67-.09,1.45-.09,2.35,0,.6,0,1.25,0,1.95.05,1.24.12,2.32.17,2.93l-3.2,0Zm4.48-8.13a2.52,2.52,0,0,1,1.87-2.06,16.15,16.15,0,0,1,4.73-.44c4.7,0,6.22.68,6.66,1.23.05.09.33.72.33,4.47,0,1.9-.07,3.76-.12,4.72h-13.5A40.35,40.35,0,0,1,409.14,446.29Zm-1.76-3H410a3.6,3.6,0,0,0-2.05,2.47,3.35,3.35,0,0,0-2.17-.94,1.9,1.9,0,0,0-.95.25A2.66,2.66,0,0,1,407.38,443.25Zm3.21,14.5,10.72.05V458c-.28.26-1.95,1.33-10.68,2Zm1.77,96.84-.21-11.68a56.38,56.38,0,0,0,7.55-1.57l0,1.11-4.07,15.68a.79.79,0,0,1-.42-.25Zm3.61,3.54,1.06-1-.67.8A.75.75,0,0,1,416,558.13Zm3.79-20c-.92.36-3,.89-7.68,1.3l0-2.1a55.51,55.51,0,0,0,7.76-1.62Zm.11-5.63c-.82.35-2.87.94-7.89,1.37l0-2.1a58.74,58.74,0,0,0,8-1.64Zm.11-5.62c-1,.38-3.14.94-8.1,1.36l0-2a62.83,62.83,0,0,0,8.19-1.65Zm.11-5.62a36.34,36.34,0,0,1-8.31,1.34l0-2a62,62,0,0,0,8.39-1.69Zm.11-5.62c-1.06.4-3.42,1-8.53,1.38l0-1.7a62.08,62.08,0,0,0,8.6-1.74Zm.1-5.37c-1,.4-3.37,1-8.72,1.42l0-1.94a61.79,61.79,0,0,0,8.8-1.78Zm.11-5.63c-1,.4-3.31,1-8.94,1.48l0-1.51a65.58,65.58,0,0,0,9-1.79Zm.1-5.19c-1.16.42-3.69,1-9.13,1.43l0-1.27a66.63,66.63,0,0,0,9.18-1.86Zm.1-5.18c-1.08.43-3.59,1.07-9.32,1.54l0-1.27c1.2-.18,3.65-.57,6.08-1.09,1.34-.29,2.42-.57,3.3-.83Zm.1-5.17c-1,.43-3.5,1.11-9.52,1.61l0-1.24a60.1,60.1,0,0,0,9.57-2Zm.1-5.17c-.93.43-3.39,1.15-9.71,1.67l0-1.24a59.28,59.28,0,0,0,9.76-2Zm.1-5.18c-.85.43-3.26,1.19-9.9,1.74l0-1.24a59.53,59.53,0,0,0,10-2.07Zm.1-5.17c-.76.41-3.11,1.22-10.1,1.79l0-1.23A60.1,60.1,0,0,0,421,472Zm.1-5.18c-.64.38-2.88,1.26-10.29,1.85l0-1.23a58.35,58.35,0,0,0,10.33-2.15Zm.1-5.19c-.5.34-2.54,1.29-10.49,1.92l0-1.22a57.38,57.38,0,0,0,10.53-2.2Zm8.11-7a1,1,0,0,1-.75.26H403.32a1,1,0,0,1-.74-.26,1,1,0,0,1-.2-.37,4,4,0,0,0,1.41-.33l4.71,0h14.82l4.79,0a4,4,0,0,0,1.41.33A1,1,0,0,1,429.32,456.24Z"/><path class="cls-1" d="M471.57,455.33l0-.48-.48,0a3,3,0,0,1-1.74-.37.31.31,0,0,1-.11-.25v-8.33a3.68,3.68,0,0,0-3.68-3.67H448.38a3.68,3.68,0,0,0-3.68,3.67v1.74l0,6.74a.3.3,0,0,1-.07.1,3,3,0,0,1-1.74.37l-.49,0,0,.48a2.22,2.22,0,0,0,.52,1.59,1.93,1.93,0,0,0,1.47.58h6.26l.06,2.85L447.88,462l2.82,1.68,0,1.72-2.85,1.73,2.91,1.73,0,1.61-2.94,1.78,3,1.79,0,1.5-3,1.84,3.1,1.84,0,1.39-3.13,1.89,3.2,1.9,0,1.28-3.22,1.95,3.29,2,0,1.23-3.13,1.9,3.2,1.9,0,1.35-3,1.82,3.08,1.83,0,1.61-2.58,1.55,2.64,1.57,0,2L448.8,508l2.74,1.63,0,2.28-2.78,1.68,2.84,1.69,0,1.91-2.88,1.73,2.94,1.75,0,2-3,1.79,3,1.81,0,2h-.12l-3,1.79,3,1.8H452l0,2-.16,0h-.11l-2.91,1.75,3,1.78.17,0h.09l0,2-.24,0h-.12l-2.92,1.77,3,1.78.17,0,.18,0,.21,11.74V555l3.06,3.57a1.81,1.81,0,0,0,1.28.62h.1a1.84,1.84,0,0,0,1.28-.54l3.36-4.07.26-13.55c1.54-.57,2.54-1.23,2.44-2l0-.22-2.34-1.6,0-1.84c1.42-.55,2.35-1.19,2.25-1.9l0-.22-2.15-1.48,0-2c1.57-.58,2.59-1.25,2.48-2l0-.22L462,526l0-1.71c1.74-.61,2.9-1.32,2.79-2.13l0-.22-2.68-1.84,0-1.43c1.68-.6,2.79-1.3,2.68-2.1l0-.22-2.57-1.76,0-1.29c1.62-.59,2.69-1.28,2.58-2.06l0-.22-2.47-1.7,0-1.65c1.56-.58,2.57-1.25,2.47-2l0-.22-2.36-1.63,0-1.26c1.78-.62,3-1.35,2.85-2.18l0-.22-2.74-1.88,0-.8c1.73-.63,2.86-1.36,2.75-2.18l0-.22-2.64-1.81,0-.92c2.39-.84,2.73-1.55,2.65-2.16l0-.22-2.54-1.74v-1c2.21-.85,2.63-1.61,2.56-2.12l0-.22-2.45-1.68,0-1.14c2.12-.84,2.53-1.58,2.46-2.08l0-.22-2.35-1.61,0-1.25c2-.83,2.43-1.55,2.36-2.05l0-.22L463,473l0-1.36c1.95-.8,2.32-1.52,2.26-2l0-.22L463.11,468l0-1.47c1.86-.78,2.22-1.48,2.16-2l0-.22-2.06-1.41,0-1.57c1.77-.77,2.12-1.46,2.06-1.92l0-.22-2-1.35v-.34h6.25a1.94,1.94,0,0,0,1.48-.58A2.22,2.22,0,0,0,471.57,455.33ZM465,450.22c0-1.3.08-2.5.08-3.06s1-1.38,1.91-1.38a.88.88,0,0,1,.75.34,2.54,2.54,0,0,1,.38,1.55l0,6.86-3.29,0C464.93,453.24,465,451.71,465,450.22Zm3.05-5.13a1.89,1.89,0,0,0-1.06-.31,3.29,3.29,0,0,0-2.17,1,3.41,3.41,0,0,0-.43-1.51,3.31,3.31,0,0,0-1.46-1h2.59A2.66,2.66,0,0,1,468.05,445.09Zm-22.39,9.33a1,1,0,0,0,0-.17v-6.59a2.52,2.52,0,0,1,.38-1.54.88.88,0,0,1,.74-.34c.88,0,1.92.85,1.92,1.38v.11c-.05.67-.09,1.45-.09,2.35,0,.6,0,1.25,0,1.95.05,1.24.12,2.32.17,2.93l-3.2,0Zm4.48-8.13a2.52,2.52,0,0,1,1.87-2.06,16.15,16.15,0,0,1,4.73-.44c4.7,0,6.22.68,6.66,1.23.05.09.33.72.33,4.47,0,1.9-.07,3.76-.12,4.72h-13.5A40.35,40.35,0,0,1,450.14,446.29Zm-1.76-3H451a3.6,3.6,0,0,0-2.05,2.47,3.35,3.35,0,0,0-2.17-.94,1.9,1.9,0,0,0-.95.25A2.66,2.66,0,0,1,448.38,443.25Zm3.21,14.5,10.72.05V458c-.28.26-1.95,1.33-10.68,2Zm1.77,96.84-.21-11.68a56.38,56.38,0,0,0,7.55-1.57l0,1.11-4.07,15.68a.79.79,0,0,1-.42-.25Zm3.61,3.54,1.06-1-.67.8A.75.75,0,0,1,457,558.13Zm3.79-20c-.92.36-3,.89-7.68,1.3l0-2.1a55.51,55.51,0,0,0,7.76-1.62Zm.11-5.63c-.82.35-2.87.94-7.89,1.37l0-2.1a58.74,58.74,0,0,0,8-1.64Zm.11-5.62c-1,.38-3.14.94-8.1,1.36l0-2a62.83,62.83,0,0,0,8.19-1.65Zm.11-5.62a36.34,36.34,0,0,1-8.31,1.34l0-2a62,62,0,0,0,8.39-1.69Zm.11-5.62c-1.06.4-3.42,1-8.53,1.38l0-1.7a62.08,62.08,0,0,0,8.6-1.74Zm.1-5.37c-1,.4-3.37,1-8.72,1.42l0-1.94a61.79,61.79,0,0,0,8.8-1.78Zm.11-5.63c-1,.4-3.31,1-8.94,1.48l0-1.51a65.58,65.58,0,0,0,9-1.79Zm.1-5.19c-1.16.42-3.69,1-9.13,1.43l0-1.27a66.63,66.63,0,0,0,9.18-1.86Zm.1-5.18c-1.08.43-3.59,1.07-9.32,1.54l0-1.27c1.2-.18,3.65-.57,6.08-1.09,1.34-.29,2.42-.57,3.3-.83Zm.1-5.17c-1,.43-3.5,1.11-9.52,1.61l0-1.24a60.1,60.1,0,0,0,9.57-2Zm.1-5.17c-.93.43-3.39,1.15-9.71,1.67l0-1.24a59.28,59.28,0,0,0,9.76-2Zm.1-5.18c-.85.43-3.26,1.19-9.9,1.74l0-1.24a59.53,59.53,0,0,0,10-2.07Zm.1-5.17c-.76.41-3.11,1.22-10.1,1.79l0-1.23A60.1,60.1,0,0,0,462,472Zm.1-5.18c-.64.38-2.88,1.26-10.29,1.85l0-1.23a58.35,58.35,0,0,0,10.33-2.15Zm.1-5.19c-.5.34-2.54,1.29-10.49,1.92l0-1.22a57.38,57.38,0,0,0,10.53-2.2Zm8.11-7a1,1,0,0,1-.75.26H444.32a1,1,0,0,1-.74-.26,1,1,0,0,1-.2-.37,4,4,0,0,0,1.41-.33l4.71,0h14.82l4.79,0a4,4,0,0,0,1.41.33A1,1,0,0,1,470.32,456.24Z"/><path class="cls-1" d="M512.57,455.33l0-.48-.48,0a3,3,0,0,1-1.74-.37.31.31,0,0,1-.11-.25v-8.33a3.68,3.68,0,0,0-3.68-3.67H489.38a3.68,3.68,0,0,0-3.68,3.67v1.74l0,6.74a.3.3,0,0,1-.07.1,3,3,0,0,1-1.74.37l-.49,0,0,.48a2.22,2.22,0,0,0,.52,1.59,1.93,1.93,0,0,0,1.47.58h6.26l.06,2.85L488.88,462l2.82,1.68,0,1.72-2.85,1.73,2.91,1.73,0,1.61-2.94,1.78,3,1.79,0,1.5-3,1.84,3.1,1.84,0,1.39-3.13,1.89,3.2,1.9,0,1.28-3.22,1.95,3.29,2,0,1.23-3.13,1.9,3.2,1.9,0,1.35-3,1.82,3.08,1.83,0,1.61-2.58,1.55,2.64,1.57,0,2L489.8,508l2.74,1.63,0,2.28-2.78,1.68,2.84,1.69,0,1.91-2.88,1.73,2.94,1.75,0,2-3,1.79,3,1.81,0,2h-.12l-3,1.79,3,1.8H493l0,2-.16,0h-.11l-2.91,1.75,3,1.78.17,0h.09l0,2-.24,0h-.12l-2.92,1.77,3,1.78.17,0,.18,0,.21,11.74V555l3.06,3.57a1.81,1.81,0,0,0,1.28.62h.1a1.84,1.84,0,0,0,1.28-.54l3.36-4.07.26-13.55c1.54-.57,2.54-1.23,2.44-2l0-.22-2.34-1.6,0-1.84c1.42-.55,2.35-1.19,2.25-1.9l0-.22-2.15-1.48,0-2c1.57-.58,2.59-1.25,2.48-2l0-.22L503,526l0-1.71c1.74-.61,2.9-1.32,2.79-2.13l0-.22-2.68-1.84,0-1.43c1.68-.6,2.79-1.3,2.68-2.1l0-.22-2.57-1.76,0-1.29c1.62-.59,2.69-1.28,2.58-2.06l0-.22-2.47-1.7,0-1.65c1.56-.58,2.57-1.25,2.47-2l0-.22-2.36-1.63,0-1.26c1.78-.62,3-1.35,2.85-2.18l0-.22-2.74-1.88,0-.8c1.73-.63,2.86-1.36,2.75-2.18l0-.22-2.64-1.81,0-.92c2.39-.84,2.73-1.55,2.65-2.16l0-.22-2.54-1.74v-1c2.21-.85,2.63-1.61,2.56-2.12l0-.22-2.45-1.68,0-1.14c2.12-.84,2.53-1.58,2.46-2.08l0-.22-2.35-1.61,0-1.25c2-.83,2.43-1.55,2.36-2.05l0-.22L504,473l0-1.36c1.95-.8,2.32-1.52,2.26-2l0-.22L504.11,468l0-1.47c1.86-.78,2.22-1.48,2.16-2l0-.22-2.06-1.41,0-1.57c1.77-.77,2.12-1.46,2.06-1.92l0-.22-2-1.35v-.34h6.25a1.94,1.94,0,0,0,1.48-.58A2.22,2.22,0,0,0,512.57,455.33ZM506,450.22c0-1.3.08-2.5.08-3.06s1-1.38,1.91-1.38a.88.88,0,0,1,.75.34,2.54,2.54,0,0,1,.38,1.55l0,6.86-3.29,0C505.93,453.24,506,451.71,506,450.22Zm3.05-5.13a1.89,1.89,0,0,0-1.06-.31,3.29,3.29,0,0,0-2.17,1,3.41,3.41,0,0,0-.43-1.51,3.31,3.31,0,0,0-1.46-1h2.59A2.66,2.66,0,0,1,509.05,445.09Zm-22.39,9.33a1,1,0,0,0,0-.17v-6.59a2.52,2.52,0,0,1,.38-1.54.88.88,0,0,1,.74-.34c.88,0,1.92.85,1.92,1.38v.11c-.05.67-.09,1.45-.09,2.35,0,.6,0,1.25,0,1.95.05,1.24.12,2.32.17,2.93l-3.2,0Zm4.48-8.13a2.52,2.52,0,0,1,1.87-2.06,16.15,16.15,0,0,1,4.73-.44c4.7,0,6.22.68,6.66,1.23.05.09.33.72.33,4.47,0,1.9-.07,3.76-.12,4.72h-13.5A40.35,40.35,0,0,1,491.14,446.29Zm-1.76-3H492a3.6,3.6,0,0,0-2.05,2.47,3.35,3.35,0,0,0-2.17-.94,1.9,1.9,0,0,0-.95.25A2.66,2.66,0,0,1,489.38,443.25Zm3.21,14.5,10.72.05V458c-.28.26-1.95,1.33-10.68,2Zm1.77,96.84-.21-11.68a56.38,56.38,0,0,0,7.55-1.57l0,1.11-4.07,15.68a.79.79,0,0,1-.42-.25Zm3.61,3.54,1.06-1-.67.8A.75.75,0,0,1,498,558.13Zm3.79-20c-.92.36-3,.89-7.68,1.3l0-2.1a55.51,55.51,0,0,0,7.76-1.62Zm.11-5.63c-.82.35-2.87.94-7.89,1.37l0-2.1a58.74,58.74,0,0,0,8-1.64Zm.11-5.62c-1,.38-3.14.94-8.1,1.36l0-2a62.83,62.83,0,0,0,8.19-1.65Zm.11-5.62a36.34,36.34,0,0,1-8.31,1.34l0-2a62,62,0,0,0,8.39-1.69Zm.11-5.62c-1.06.4-3.42,1-8.53,1.38l0-1.7a62.08,62.08,0,0,0,8.6-1.74Zm.1-5.37c-1,.4-3.37,1-8.72,1.42l0-1.94a61.79,61.79,0,0,0,8.8-1.78Zm.11-5.63c-1,.4-3.31,1-8.94,1.48l0-1.51a65.58,65.58,0,0,0,9-1.79Zm.1-5.19c-1.16.42-3.69,1-9.13,1.43l0-1.27a66.63,66.63,0,0,0,9.18-1.86Zm.1-5.18c-1.08.43-3.59,1.07-9.32,1.54l0-1.27c1.2-.18,3.65-.57,6.08-1.09,1.34-.29,2.42-.57,3.3-.83Zm.1-5.17c-1,.43-3.5,1.11-9.52,1.61l0-1.24a60.1,60.1,0,0,0,9.57-2Zm.1-5.17c-.93.43-3.39,1.15-9.71,1.67l0-1.24a59.28,59.28,0,0,0,9.76-2Zm.1-5.18c-.85.43-3.26,1.19-9.9,1.74l0-1.24a59.53,59.53,0,0,0,10-2.07Zm.1-5.17c-.76.41-3.11,1.22-10.1,1.79l0-1.23A60.1,60.1,0,0,0,503,472Zm.1-5.18c-.64.38-2.88,1.26-10.29,1.85l0-1.23a58.35,58.35,0,0,0,10.33-2.15Zm.1-5.19c-.5.34-2.54,1.29-10.49,1.92l0-1.22a57.38,57.38,0,0,0,10.53-2.2Zm8.11-7a1,1,0,0,1-.75.26H485.32a1,1,0,0,1-.74-.26,1,1,0,0,1-.2-.37,4,4,0,0,0,1.41-.33l4.71,0h14.82l4.79,0a4,4,0,0,0,1.41.33A1,1,0,0,1,511.32,456.24Z"/><path class="cls-1" d="M553.57,455.33l0-.48-.48,0a3,3,0,0,1-1.74-.37.31.31,0,0,1-.11-.25v-8.33a3.68,3.68,0,0,0-3.68-3.67H530.38a3.68,3.68,0,0,0-3.68,3.67v1.74l0,6.74a.3.3,0,0,1-.07.1,3,3,0,0,1-1.74.37l-.49,0,0,.48a2.22,2.22,0,0,0,.52,1.59,1.93,1.93,0,0,0,1.47.58h6.26l.06,2.85L529.88,462l2.82,1.68,0,1.72-2.85,1.73,2.91,1.73,0,1.61-2.94,1.78,3,1.79,0,1.5-3,1.84,3.1,1.84,0,1.39-3.13,1.89,3.2,1.9,0,1.28-3.22,1.95,3.29,2,0,1.23-3.13,1.9,3.2,1.9,0,1.35-3,1.82,3.08,1.83,0,1.61-2.58,1.55,2.64,1.57,0,2L530.8,508l2.74,1.63,0,2.28-2.78,1.68,2.84,1.69,0,1.91-2.88,1.73,2.94,1.75,0,2-3,1.79,3,1.81,0,2h-.12l-3,1.79,3,1.8H534l0,2-.16,0h-.11l-2.91,1.75,3,1.78.17,0h.09l0,2-.24,0h-.12l-2.92,1.77,3,1.78.17,0,.18,0,.21,11.74V555l3.06,3.57a1.81,1.81,0,0,0,1.28.62h.1a1.84,1.84,0,0,0,1.28-.54l3.36-4.07.26-13.55c1.54-.57,2.54-1.23,2.44-2l0-.22-2.34-1.6,0-1.84c1.42-.55,2.35-1.19,2.25-1.9l0-.22-2.15-1.48,0-2c1.57-.58,2.59-1.25,2.48-2l0-.22L544,526l0-1.71c1.74-.61,2.9-1.32,2.79-2.13l0-.22-2.68-1.84,0-1.43c1.68-.6,2.79-1.3,2.68-2.1l0-.22-2.57-1.76,0-1.29c1.62-.59,2.69-1.28,2.58-2.06l0-.22-2.47-1.7,0-1.65c1.56-.58,2.57-1.25,2.47-2l0-.22-2.36-1.63,0-1.26c1.78-.62,3-1.35,2.85-2.18l0-.22-2.74-1.88,0-.8c1.73-.63,2.86-1.36,2.75-2.18l0-.22-2.64-1.81,0-.92c2.39-.84,2.73-1.55,2.65-2.16l0-.22-2.54-1.74v-1c2.21-.85,2.63-1.61,2.56-2.12l0-.22-2.45-1.68,0-1.14c2.12-.84,2.53-1.58,2.46-2.08l0-.22-2.35-1.61,0-1.25c2-.83,2.43-1.55,2.36-2.05l0-.22L545,473l0-1.36c2-.8,2.32-1.52,2.26-2l0-.22L545.11,468l0-1.47c1.86-.78,2.22-1.48,2.16-2l0-.22-2.06-1.41,0-1.57c1.77-.77,2.12-1.46,2.06-1.92l0-.22-2-1.35v-.34h6.25a1.94,1.94,0,0,0,1.48-.58A2.22,2.22,0,0,0,553.57,455.33ZM547,450.22c0-1.3.08-2.5.08-3.06s1-1.38,1.91-1.38a.88.88,0,0,1,.75.34,2.54,2.54,0,0,1,.38,1.55l0,6.86-3.29,0C546.93,453.24,547,451.71,547,450.22Zm3-5.13a1.89,1.89,0,0,0-1.06-.31,3.29,3.29,0,0,0-2.17,1,3.41,3.41,0,0,0-.43-1.51,3.31,3.31,0,0,0-1.46-1h2.59A2.66,2.66,0,0,1,550.05,445.09Zm-22.39,9.33a1,1,0,0,0,0-.17v-6.59a2.52,2.52,0,0,1,.38-1.54.88.88,0,0,1,.74-.34c.88,0,1.92.85,1.92,1.38v.11c0,.67-.09,1.45-.09,2.35,0,.6,0,1.25,0,1.95,0,1.24.12,2.32.17,2.93l-3.2,0Zm4.48-8.13a2.52,2.52,0,0,1,1.87-2.06,16.15,16.15,0,0,1,4.73-.44c4.7,0,6.22.68,6.66,1.23.05.09.33.72.33,4.47,0,1.9-.07,3.76-.12,4.72h-13.5A40.35,40.35,0,0,1,532.14,446.29Zm-1.76-3H533a3.6,3.6,0,0,0-2,2.47,3.35,3.35,0,0,0-2.17-.94,1.9,1.9,0,0,0-1,.25A2.66,2.66,0,0,1,530.38,443.25Zm3.21,14.5,10.72.05V458c-.28.26-1.95,1.33-10.68,2Zm1.77,96.84-.21-11.68a56.38,56.38,0,0,0,7.55-1.57l0,1.11-4.07,15.68a.79.79,0,0,1-.42-.25Zm3.61,3.54,1.06-1-.67.8A.75.75,0,0,1,539,558.13Zm3.79-20c-.92.36-3,.89-7.68,1.3l0-2.1a55.51,55.51,0,0,0,7.76-1.62Zm.11-5.63c-.82.35-2.87.94-7.89,1.37l0-2.1a58.74,58.74,0,0,0,8-1.64Zm.11-5.62c-1,.38-3.14.94-8.1,1.36l0-2a62.83,62.83,0,0,0,8.19-1.65Zm.11-5.62a36.34,36.34,0,0,1-8.31,1.34l0-2a62,62,0,0,0,8.39-1.69Zm.11-5.62c-1.06.4-3.42,1-8.53,1.38l0-1.7a62.08,62.08,0,0,0,8.6-1.74Zm.1-5.37c-1,.4-3.37,1-8.72,1.42l0-1.94a61.79,61.79,0,0,0,8.8-1.78Zm.11-5.63c-1,.4-3.31,1-8.94,1.48l0-1.51a65.58,65.58,0,0,0,9-1.79Zm.1-5.19c-1.16.42-3.69,1-9.13,1.43l0-1.27a66.63,66.63,0,0,0,9.18-1.86Zm.1-5.18c-1.08.43-3.59,1.07-9.32,1.54l0-1.27c1.2-.18,3.65-.57,6.08-1.09,1.34-.29,2.42-.57,3.3-.83Zm.1-5.17c-1,.43-3.5,1.11-9.52,1.61l0-1.24a60.1,60.1,0,0,0,9.57-2Zm.1-5.17c-.93.43-3.39,1.15-9.71,1.67l0-1.24a59.28,59.28,0,0,0,9.76-2Zm.1-5.18c-.85.43-3.26,1.19-9.9,1.74l0-1.24a59.53,59.53,0,0,0,10-2.07Zm.1-5.17c-.76.41-3.11,1.22-10.1,1.79l0-1.23A60.1,60.1,0,0,0,544,472Zm.1-5.18c-.64.38-2.88,1.26-10.29,1.85l0-1.23a58.35,58.35,0,0,0,10.33-2.15Zm.1-5.19c-.5.34-2.54,1.29-10.49,1.92l0-1.22a57.38,57.38,0,0,0,10.53-2.2Zm8.11-7a1,1,0,0,1-.75.26H526.32a1,1,0,0,1-.74-.26,1,1,0,0,1-.2-.37,4,4,0,0,0,1.41-.33l4.71,0h14.82l4.79,0a4,4,0,0,0,1.41.33A1,1,0,0,1,552.32,456.24Z"/><path class="cls-1" d="M38.92,448.25l0-.49-.49,0a3,3,0,0,1-1.74-.37.36.36,0,0,1-.11-.26v-8.32a3.68,3.68,0,0,0-3.67-3.68H15.72A3.68,3.68,0,0,0,12,438.84v1.74l0,6.74-.08.1a3,3,0,0,1-1.74.37l-.48,0,0,.48a2.19,2.19,0,0,0,.52,1.58,1.92,1.92,0,0,0,1.48.58h6.26l.16,3-1.94,1.18,2.07,1.23.16,3-2.23,1.35,2.38,1.42.14,2.67-2.52,1.52,2.69,1.6L19,469.7l-2.81,1.7,3,1.78.58,10.88,3.06,3.56a1.78,1.78,0,0,0,1.27.63h.1a1.84,1.84,0,0,0,1.28-.54l3.35-4.06.72-12.74c1.28-.52,2.09-1.12,2-1.79l0-.22-1.78-1.23.14-2.5c1-.48,1.67-1,1.59-1.62l-.78-1.36-.36-.7-.26.36.13-2.33c1.05-.48,1.69-1,1.6-1.63l-.82-1.41-.37-.69-.22.31.13-2.2c1.11-.51,1.79-1.07,1.7-1.7l-.88-1.45-.19-.34h5.83a1.89,1.89,0,0,0,1.47-.58A2.27,2.27,0,0,0,38.92,448.25Zm-6.58-5.13c0-1.29.08-2.48.08-3s1-1.38,1.92-1.38a.88.88,0,0,1,.74.34,2.5,2.5,0,0,1,.38,1.54l0,6.87-3.29,0C32.27,446.15,32.33,444.62,32.34,443.12Zm3-5.12a1.93,1.93,0,0,0-1-.3,3.32,3.32,0,0,0-2.18.95,3.41,3.41,0,0,0-.43-1.51,3.34,3.34,0,0,0-1.46-1h2.6A2.66,2.66,0,0,1,35.39,438ZM13,447.34a1,1,0,0,0,0-.18v-6.58a2.5,2.5,0,0,1,.38-1.54.9.9,0,0,1,.75-.34c.87,0,1.92.85,1.92,1.38v.11c-.06.67-.09,1.45-.09,2.35,0,.6,0,1.24,0,1.94,0,1.25.13,2.33.17,2.94l-3.19,0Zm4.48-8.14a2.5,2.5,0,0,1,1.87-2.05,16,16,0,0,1,4.72-.44c4.7,0,6.22.67,6.66,1.23.06.09.33.71.33,4.46,0,1.91-.07,3.77-.11,4.72H17.45A40.41,40.41,0,0,1,17.49,439.2Zm-1.77-3h2.66a3.66,3.66,0,0,0-2.05,2.47,3.29,3.29,0,0,0-2.16-.93,2,2,0,0,0-1,.24A2.68,2.68,0,0,1,15.72,436.16ZM19,450.67l10.68.05,0,.42c-1.2.45-4,1.14-10.33,1.62h-.12l-.1.05Zm1.75,33L20.13,473a54.36,54.36,0,0,0,8.35-1.75l-.09,1.48L24,487.21a.8.8,0,0,1-.44-.24Zm3.61,3.55,1.06-1-.67.81A.79.79,0,0,1,24.31,487.22ZM28.67,468c-.46.3-2.25,1.08-8.72,1.62l-.11-2.07a52.6,52.6,0,0,0,9-1.91Zm.3-5.41c-1.13.41-3.7,1-9.31,1.48l-.11-2a55,55,0,0,0,9.57-2Zm.32-5.7c-1.15.43-3.84,1.1-9.93,1.57l-.1-2,.16,0a57.16,57.16,0,0,0,10-2.1Zm1.36-6.4v0h0Zm7-1.29a.93.93,0,0,1-.74.26H11.67a1,1,0,0,1-.74-.25.9.9,0,0,1-.21-.38,4,4,0,0,0,1.41-.32l4.72,0H31.66l4.79,0a4,4,0,0,0,1.41.32A.89.89,0,0,1,37.66,449.15Z"/><path class="cls-1" d="M78.25,448.25l0-.49-.49,0a2.9,2.9,0,0,1-1.73-.37.33.33,0,0,1-.11-.26v-8.32a3.68,3.68,0,0,0-3.68-3.68H55.05a3.68,3.68,0,0,0-3.67,3.68v1.74l0,6.74-.07.1a3,3,0,0,1-1.74.37l-.49,0,0,.48a2.3,2.3,0,0,0,.52,1.58,1.92,1.92,0,0,0,1.48.58h6.27l.16,3-2,1.18,2.07,1.23.17,3-2.24,1.35,2.38,1.42L58,464.3l-2.52,1.52,2.69,1.6.12,2.28-2.81,1.7,3,1.78.58,10.88,3.06,3.56a1.8,1.8,0,0,0,1.28.63h.09a1.84,1.84,0,0,0,1.28-.54l3.36-4.06.71-12.74c1.28-.52,2.09-1.12,2-1.79l0-.22L69,467.67l.14-2.5c1-.48,1.67-1,1.58-1.62L70,462.19l-.36-.7-.26.36.13-2.33c1-.48,1.69-1,1.61-1.63l-.83-1.41-.37-.69-.21.31.12-2.2c1.11-.51,1.79-1.07,1.7-1.7l-.88-1.45-.19-.34h5.83a1.92,1.92,0,0,0,1.48-.58A2.19,2.19,0,0,0,78.25,448.25Zm-6.57-5.13c0-1.29.07-2.48.07-3s1-1.38,1.92-1.38a.9.9,0,0,1,.75.34,2.5,2.5,0,0,1,.38,1.54l0,6.87-3.29,0C71.61,446.15,71.66,444.62,71.68,443.12Zm3-5.12a2,2,0,0,0-1.06-.3,3.29,3.29,0,0,0-2.17.95,3.7,3.7,0,0,0-.43-1.51,3.47,3.47,0,0,0-1.46-1H72.2A2.69,2.69,0,0,1,74.73,438Zm-22.39,9.34a1,1,0,0,0,0-.18v-6.58a2.5,2.5,0,0,1,.38-1.54.88.88,0,0,1,.74-.34c.87,0,1.92.85,1.92,1.38v.11c-.06.67-.09,1.45-.09,2.35,0,.6,0,1.24,0,1.94,0,1.25.12,2.33.17,2.94l-3.2,0Zm4.48-8.14a2.5,2.5,0,0,1,1.87-2.05,16,16,0,0,1,4.72-.44c4.7,0,6.22.67,6.67,1.23,0,.09.32.71.32,4.46,0,1.91-.07,3.77-.11,4.72H56.78A40.41,40.41,0,0,1,56.82,439.2Zm-1.77-3h2.66a3.66,3.66,0,0,0-2.05,2.47,3.29,3.29,0,0,0-2.16-.93,2,2,0,0,0-1,.24A2.68,2.68,0,0,1,55.05,436.16Zm3.23,14.51,10.69.05,0,.42c-1.2.45-4,1.14-10.33,1.62H58.5l-.1.05Zm1.75,33L59.47,473a54.23,54.23,0,0,0,8.34-1.75l-.08,1.48-4.42,14.44a.74.74,0,0,1-.44-.24Zm3.61,3.55,1.06-1L64,487A.79.79,0,0,1,63.64,487.22ZM68,468c-.46.3-2.25,1.08-8.72,1.62l-.11-2.07a52.4,52.4,0,0,0,9-1.91Zm.3-5.41c-1.13.41-3.7,1-9.31,1.48l-.11-2a54.84,54.84,0,0,0,9.57-2Zm.32-5.7c-1.15.43-3.84,1.1-9.93,1.57l-.1-2,.16,0a57.08,57.08,0,0,0,10-2.1Zm1.36-6.4v0h0Zm7-1.29a.93.93,0,0,1-.74.26H51a1,1,0,0,1-.74-.25,1,1,0,0,1-.2-.38,4.07,4.07,0,0,0,1.41-.32l4.71,0H71l4.8,0a4,4,0,0,0,1.4.32A.79.79,0,0,1,77,449.15Z"/><path class="cls-1" d="M114.92,448.25l0-.49-.49,0a3,3,0,0,1-1.74-.37.36.36,0,0,1-.11-.26v-8.32a3.68,3.68,0,0,0-3.67-3.68H91.72A3.68,3.68,0,0,0,88,438.84v1.74l0,6.74-.08.1a3,3,0,0,1-1.74.37l-.48,0,0,.48a2.19,2.19,0,0,0,.52,1.58,1.92,1.92,0,0,0,1.48.58h6.26l.16,3-1.94,1.18,2.07,1.23.16,3-2.23,1.35,2.38,1.42.14,2.67-2.52,1.52,2.69,1.6L95,469.7l-2.81,1.7,3,1.78.58,10.88,3.06,3.56a1.78,1.78,0,0,0,1.27.63h.1a1.84,1.84,0,0,0,1.28-.54l3.35-4.06.72-12.74c1.28-.52,2.09-1.12,2-1.79l0-.22-1.78-1.23.14-2.5c1-.48,1.67-1,1.59-1.62l-.78-1.36-.36-.7-.26.36.13-2.33c1-.48,1.69-1,1.6-1.63l-.82-1.41-.37-.69-.22.31.13-2.2c1.11-.51,1.79-1.07,1.7-1.7l-.88-1.45-.19-.34h5.83a1.89,1.89,0,0,0,1.47-.58A2.27,2.27,0,0,0,114.92,448.25Zm-6.58-5.13c0-1.29.08-2.48.08-3s1-1.38,1.92-1.38a.88.88,0,0,1,.74.34,2.5,2.5,0,0,1,.38,1.54l0,6.87-3.29,0C108.27,446.15,108.33,444.62,108.34,443.12Zm3-5.12a1.93,1.93,0,0,0-1-.3,3.32,3.32,0,0,0-2.18.95,3.41,3.41,0,0,0-.43-1.51,3.34,3.34,0,0,0-1.46-1h2.6A2.66,2.66,0,0,1,111.39,438ZM89,447.34a1,1,0,0,0,0-.18v-6.58a2.5,2.5,0,0,1,.38-1.54.9.9,0,0,1,.75-.34c.87,0,1.92.85,1.92,1.38v.11c-.06.67-.09,1.45-.09,2.35,0,.6,0,1.24,0,1.94,0,1.25.13,2.33.17,2.94l-3.19,0Zm4.48-8.14a2.5,2.5,0,0,1,1.87-2.05,16,16,0,0,1,4.72-.44c4.7,0,6.22.67,6.66,1.23.06.09.33.71.33,4.46,0,1.91-.07,3.77-.11,4.72H93.45A40.41,40.41,0,0,1,93.49,439.2Zm-1.77-3h2.66a3.66,3.66,0,0,0-2,2.47,3.29,3.29,0,0,0-2.16-.93,2,2,0,0,0-1,.24A2.68,2.68,0,0,1,91.72,436.16ZM95,450.67l10.68.05,0,.42c-1.2.45-4,1.14-10.33,1.62h-.12l-.1.05Zm1.75,33L96.13,473a54.36,54.36,0,0,0,8.35-1.75l-.09,1.48L100,487.21a.8.8,0,0,1-.44-.24Zm3.61,3.55,1.06-1-.67.81A.79.79,0,0,1,100.31,487.22ZM104.67,468c-.46.3-2.25,1.08-8.72,1.62l-.11-2.07a52.6,52.6,0,0,0,9-1.91Zm.3-5.41c-1.13.41-3.7,1-9.31,1.48l-.11-2a55,55,0,0,0,9.57-2Zm.32-5.7c-1.15.43-3.84,1.1-9.93,1.57l-.1-2,.16,0a57.16,57.16,0,0,0,10-2.1Zm1.36-6.4v0h0Zm7-1.29a.93.93,0,0,1-.74.26H87.67a1,1,0,0,1-.74-.25.9.9,0,0,1-.21-.38,4,4,0,0,0,1.41-.32l4.72,0h14.81l4.79,0a4,4,0,0,0,1.41.32A.89.89,0,0,1,113.66,449.15Z"/><path class="cls-1" d="M154.25,448.25l0-.49-.49,0a2.9,2.9,0,0,1-1.73-.37.33.33,0,0,1-.11-.26v-8.32a3.68,3.68,0,0,0-3.68-3.68H131.05a3.68,3.68,0,0,0-3.67,3.68v1.74l0,6.74-.07.1a3,3,0,0,1-1.74.37l-.49,0,0,.48a2.3,2.3,0,0,0,.52,1.58,1.92,1.92,0,0,0,1.48.58h6.27l.16,3-2,1.18,2.07,1.23.17,3-2.24,1.35,2.38,1.42.14,2.67-2.52,1.52,2.69,1.6.12,2.28-2.81,1.7,3,1.78.58,10.88,3.06,3.56a1.8,1.8,0,0,0,1.28.63h.09a1.84,1.84,0,0,0,1.28-.54l3.36-4.06.71-12.74c1.28-.52,2.09-1.12,2-1.79l0-.22L145,467.67l.14-2.5c1-.48,1.67-1,1.58-1.62l-.78-1.36-.36-.7-.26.36.13-2.33c1.05-.48,1.69-1,1.61-1.63l-.83-1.41-.37-.69-.21.31.12-2.2c1.11-.51,1.79-1.07,1.7-1.7l-.88-1.45-.19-.34h5.83a1.92,1.92,0,0,0,1.48-.58A2.19,2.19,0,0,0,154.25,448.25Zm-6.57-5.13c0-1.29.07-2.48.07-3s1.05-1.38,1.92-1.38a.9.9,0,0,1,.75.34,2.5,2.5,0,0,1,.38,1.54l0,6.87-3.29,0C147.61,446.15,147.66,444.62,147.68,443.12Zm3-5.12a2,2,0,0,0-1.06-.3,3.29,3.29,0,0,0-2.17.95,3.7,3.7,0,0,0-.43-1.51,3.47,3.47,0,0,0-1.46-1h2.59A2.69,2.69,0,0,1,150.73,438Zm-22.39,9.34a1,1,0,0,0,0-.18v-6.58a2.5,2.5,0,0,1,.38-1.54.88.88,0,0,1,.74-.34c.87,0,1.92.85,1.92,1.38v.11c-.06.67-.09,1.45-.09,2.35,0,.6,0,1.24,0,1.94,0,1.25.12,2.33.17,2.94l-3.2,0Zm4.48-8.14a2.5,2.5,0,0,1,1.87-2.05,16,16,0,0,1,4.72-.44c4.7,0,6.22.67,6.67,1.23,0,.09.32.71.32,4.46,0,1.91-.07,3.77-.11,4.72H132.78A40.41,40.41,0,0,1,132.82,439.2Zm-1.77-3h2.66a3.66,3.66,0,0,0-2.05,2.47,3.29,3.29,0,0,0-2.16-.93,2,2,0,0,0-1,.24A2.68,2.68,0,0,1,131.05,436.16Zm3.23,14.51,10.69.05,0,.42c-1.2.45-4,1.14-10.33,1.62h-.11l-.1.05Zm1.75,33L135.47,473a54.23,54.23,0,0,0,8.34-1.75l-.08,1.48-4.42,14.44a.74.74,0,0,1-.44-.24Zm3.61,3.55,1.06-1L140,487A.79.79,0,0,1,139.64,487.22ZM144,468c-.46.3-2.25,1.08-8.72,1.62l-.11-2.07a52.4,52.4,0,0,0,9-1.91Zm.3-5.41c-1.13.41-3.7,1-9.31,1.48l-.11-2a54.84,54.84,0,0,0,9.57-2Zm.32-5.7c-1.15.43-3.84,1.1-9.93,1.57l-.1-2,.16,0a57.08,57.08,0,0,0,10-2.1Zm1.36-6.4v0h0Zm7-1.29a.93.93,0,0,1-.74.26H127a1,1,0,0,1-.74-.25,1,1,0,0,1-.2-.38,4.07,4.07,0,0,0,1.41-.32l4.71,0H147l4.8,0a4,4,0,0,0,1.4.32A.79.79,0,0,1,153,449.15Z"/><path class="cls-1" d="M38.92,534.8l0-.49-.49,0a3,3,0,0,1-1.74-.38.34.34,0,0,1-.11-.25v-8.32a3.68,3.68,0,0,0-3.67-3.68H15.72A3.68,3.68,0,0,0,12,525.39v1.73l0,6.74a.25.25,0,0,1-.08.1,3,3,0,0,1-1.74.38l-.48,0,0,.49a2.2,2.2,0,0,0,.52,1.58,2,2,0,0,0,1.48.58h6.26l.16,3-1.94,1.17,2.07,1.24.16,3-2.23,1.36,2.38,1.41.14,2.67-2.52,1.53,2.69,1.6.12,2.28-2.81,1.69,3,1.79.58,10.88,3.06,3.56a1.77,1.77,0,0,0,1.27.62h.1a1.83,1.83,0,0,0,1.28-.53l3.35-4.07.72-12.73c1.28-.53,2.09-1.13,2-1.8l0-.22-1.78-1.22.14-2.5c1-.49,1.67-1,1.59-1.62l-.78-1.37-.36-.7-.26.37.13-2.33c1.05-.49,1.69-1,1.6-1.64l-.82-1.4-.37-.69-.22.31.13-2.2c1.11-.51,1.79-1.08,1.7-1.71l-.88-1.44-.19-.34h5.83a1.93,1.93,0,0,0,1.47-.58A2.28,2.28,0,0,0,38.92,534.8Zm-6.58-5.13c0-1.3.08-2.49.08-3s1-1.39,1.92-1.39a.88.88,0,0,1,.74.34,2.54,2.54,0,0,1,.38,1.55l0,6.87-3.29,0C32.27,532.7,32.33,531.17,32.34,529.67Zm3-5.12a1.86,1.86,0,0,0-1-.31,3.32,3.32,0,0,0-2.18,1,3.41,3.41,0,0,0-.43-1.51,3.33,3.33,0,0,0-1.46-1h2.6A2.65,2.65,0,0,1,35.39,524.55ZM13,533.89a1.13,1.13,0,0,0,0-.18v-6.58a2.54,2.54,0,0,1,.38-1.55.9.9,0,0,1,.75-.34c.87,0,1.92.85,1.92,1.39v.11c-.06.67-.09,1.44-.09,2.35,0,.59,0,1.24,0,1.94,0,1.24.13,2.33.17,2.94L13,534Zm4.48-8.14a2.48,2.48,0,0,1,1.87-2,16,16,0,0,1,4.72-.45c4.7,0,6.22.68,6.66,1.24.06.08.33.71.33,4.46,0,1.9-.07,3.76-.11,4.72H17.45A40.41,40.41,0,0,1,17.49,525.75Zm-1.77-3h2.66a3.64,3.64,0,0,0-2.05,2.47,3.3,3.3,0,0,0-2.16-.94,1.91,1.91,0,0,0-1,.25A2.66,2.66,0,0,1,15.72,522.71ZM19,537.21l10.68.06,0,.41c-1.2.45-4,1.15-10.33,1.62h-.12l-.1.06Zm1.75,33-.57-10.63a55.57,55.57,0,0,0,8.35-1.76l-.09,1.48L24,573.76a.82.82,0,0,1-.44-.25Zm3.61,3.54,1.06-1-.67.81A.72.72,0,0,1,24.31,573.76Zm4.36-19.26c-.46.3-2.25,1.07-8.72,1.61l-.11-2.06a53.58,53.58,0,0,0,9-1.92Zm.3-5.42c-1.13.41-3.7,1-9.31,1.49l-.11-2.06a56,56,0,0,0,9.57-2Zm.32-5.7c-1.15.43-3.84,1.1-9.93,1.57l-.1-2,.16,0a59,59,0,0,0,10-2.1Zm1.36-6.4v0h0Zm7-1.28a1,1,0,0,1-.74.26H11.67a.93.93,0,0,1-.74-.26.87.87,0,0,1-.21-.37,4.26,4.26,0,0,0,1.41-.32l4.72,0H31.66l4.79,0a4.26,4.26,0,0,0,1.41.32A1,1,0,0,1,37.66,535.7Z"/><path class="cls-1" d="M78.25,534.8l0-.49-.49,0A3,3,0,0,1,76,534a.31.31,0,0,1-.11-.25v-8.32a3.68,3.68,0,0,0-3.68-3.68H55.05a3.68,3.68,0,0,0-3.67,3.68v1.73l0,6.74a.36.36,0,0,1-.07.1,3,3,0,0,1-1.74.38l-.49,0,0,.49a2.31,2.31,0,0,0,.52,1.58A2,2,0,0,0,51,537h6.27l.16,3-2,1.17,2.07,1.24.17,3-2.24,1.36,2.38,1.41.14,2.67-2.52,1.53,2.69,1.6.12,2.28-2.81,1.69,3,1.79.58,10.88,3.06,3.56a1.79,1.79,0,0,0,1.28.62h.09a1.83,1.83,0,0,0,1.28-.53l3.36-4.07.71-12.73c1.28-.53,2.09-1.13,2-1.8l0-.22L69,554.22l.14-2.5c1-.49,1.67-1,1.58-1.62L70,548.73l-.36-.7-.26.37.13-2.33c1-.49,1.69-1,1.61-1.64l-.83-1.4-.37-.69-.21.31.12-2.2c1.11-.51,1.79-1.08,1.7-1.71l-.88-1.44-.19-.34h5.83a2,2,0,0,0,1.48-.58A2.2,2.2,0,0,0,78.25,534.8Zm-6.57-5.13c0-1.3.07-2.49.07-3s1-1.39,1.92-1.39a.9.9,0,0,1,.75.34,2.54,2.54,0,0,1,.38,1.55l0,6.87-3.29,0C71.61,532.7,71.66,531.17,71.68,529.67Zm3-5.12a1.91,1.91,0,0,0-1.06-.31,3.29,3.29,0,0,0-2.17,1,3.7,3.7,0,0,0-.43-1.51,3.46,3.46,0,0,0-1.46-1H72.2A2.67,2.67,0,0,1,74.73,524.55Zm-22.39,9.34a1.16,1.16,0,0,0,0-.18v-6.58a2.54,2.54,0,0,1,.38-1.55.88.88,0,0,1,.74-.34c.87,0,1.92.85,1.92,1.39v.11c-.06.67-.09,1.44-.09,2.35,0,.59,0,1.24,0,1.94,0,1.24.12,2.33.17,2.94l-3.2,0Zm4.48-8.14a2.48,2.48,0,0,1,1.87-2,16,16,0,0,1,4.72-.45c4.7,0,6.22.68,6.67,1.24,0,.08.32.71.32,4.46,0,1.9-.07,3.76-.11,4.72H56.78A40.41,40.41,0,0,1,56.82,525.75Zm-1.77-3h2.66a3.64,3.64,0,0,0-2.05,2.47,3.3,3.3,0,0,0-2.16-.94,1.93,1.93,0,0,0-1,.25A2.66,2.66,0,0,1,55.05,522.71Zm3.23,14.5,10.69.06,0,.41c-1.2.45-4,1.15-10.33,1.62H58.5l-.1.06Zm1.75,33-.56-10.63a55.44,55.44,0,0,0,8.34-1.76l-.08,1.48-4.42,14.45a.75.75,0,0,1-.44-.25Zm3.61,3.54,1.06-1-.67.81A.72.72,0,0,1,63.64,573.76ZM68,554.5c-.46.3-2.25,1.07-8.72,1.61l-.11-2.06a53.37,53.37,0,0,0,9-1.92Zm.3-5.42c-1.13.41-3.7,1-9.31,1.49l-.11-2.06a55.76,55.76,0,0,0,9.57-2Zm.32-5.7c-1.15.43-3.84,1.1-9.93,1.57l-.1-2,.16,0a59,59,0,0,0,10-2.1ZM70,537v0h0Zm7-1.28a1,1,0,0,1-.74.26H51a.93.93,0,0,1-.74-.26,1,1,0,0,1-.2-.37,4.31,4.31,0,0,0,1.41-.32l4.71,0H71l4.8,0a4.26,4.26,0,0,0,1.4.32A.84.84,0,0,1,77,535.7Z"/><path class="cls-1" d="M114.92,534.8l0-.49-.49,0a3,3,0,0,1-1.74-.38.34.34,0,0,1-.11-.25v-8.32a3.68,3.68,0,0,0-3.67-3.68H91.72A3.68,3.68,0,0,0,88,525.39v1.73l0,6.74a.25.25,0,0,1-.08.1,3,3,0,0,1-1.74.38l-.48,0,0,.49a2.2,2.2,0,0,0,.52,1.58,2,2,0,0,0,1.48.58h6.26l.16,3-1.94,1.17,2.07,1.24.16,3-2.23,1.36,2.38,1.41.14,2.67-2.52,1.53,2.69,1.6.12,2.28-2.81,1.69,3,1.79.58,10.88,3.06,3.56a1.77,1.77,0,0,0,1.27.62h.1a1.83,1.83,0,0,0,1.28-.53l3.35-4.07.72-12.73c1.28-.53,2.09-1.13,2-1.8l0-.22-1.78-1.22.14-2.5c1-.49,1.67-1,1.59-1.62l-.78-1.37-.36-.7-.26.37.13-2.33c1-.49,1.69-1,1.6-1.64l-.82-1.4-.37-.69-.22.31.13-2.2c1.11-.51,1.79-1.08,1.7-1.71l-.88-1.44-.19-.34h5.83a1.93,1.93,0,0,0,1.47-.58A2.28,2.28,0,0,0,114.92,534.8Zm-6.58-5.13c0-1.3.08-2.49.08-3s1-1.39,1.92-1.39a.88.88,0,0,1,.74.34,2.54,2.54,0,0,1,.38,1.55l0,6.87-3.29,0C108.27,532.7,108.33,531.17,108.34,529.67Zm3-5.12a1.86,1.86,0,0,0-1-.31,3.32,3.32,0,0,0-2.18,1,3.41,3.41,0,0,0-.43-1.51,3.33,3.33,0,0,0-1.46-1h2.6A2.65,2.65,0,0,1,111.39,524.55ZM89,533.89a1.13,1.13,0,0,0,0-.18v-6.58a2.54,2.54,0,0,1,.38-1.55.9.9,0,0,1,.75-.34c.87,0,1.92.85,1.92,1.39v.11c-.06.67-.09,1.44-.09,2.35,0,.59,0,1.24,0,1.94,0,1.24.13,2.33.17,2.94L89,534Zm4.48-8.14a2.48,2.48,0,0,1,1.87-2,16,16,0,0,1,4.72-.45c4.7,0,6.22.68,6.66,1.24.06.08.33.71.33,4.46,0,1.9-.07,3.76-.11,4.72H93.45A40.41,40.41,0,0,1,93.49,525.75Zm-1.77-3h2.66a3.64,3.64,0,0,0-2,2.47,3.3,3.3,0,0,0-2.16-.94,1.91,1.91,0,0,0-1,.25A2.66,2.66,0,0,1,91.72,522.71ZM95,537.21l10.68.06,0,.41c-1.2.45-4,1.15-10.33,1.62h-.12l-.1.06Zm1.75,33-.57-10.63a55.57,55.57,0,0,0,8.35-1.76l-.09,1.48L100,573.76a.82.82,0,0,1-.44-.25Zm3.61,3.54,1.06-1-.67.81A.72.72,0,0,1,100.31,573.76Zm4.36-19.26c-.46.3-2.25,1.07-8.72,1.61l-.11-2.06a53.58,53.58,0,0,0,9-1.92Zm.3-5.42c-1.13.41-3.7,1-9.31,1.49l-.11-2.06a56,56,0,0,0,9.57-2Zm.32-5.7c-1.15.43-3.84,1.1-9.93,1.57l-.1-2,.16,0a59,59,0,0,0,10-2.1Zm1.36-6.4v0h0Zm7-1.28a1,1,0,0,1-.74.26H87.67a.93.93,0,0,1-.74-.26.87.87,0,0,1-.21-.37,4.26,4.26,0,0,0,1.41-.32l4.72,0h14.81l4.79,0a4.26,4.26,0,0,0,1.41.32A1,1,0,0,1,113.66,535.7Z"/><path class="cls-1" d="M154.25,534.8l0-.49-.49,0A3,3,0,0,1,152,534a.31.31,0,0,1-.11-.25v-8.32a3.68,3.68,0,0,0-3.68-3.68H131.05a3.68,3.68,0,0,0-3.67,3.68v1.73l0,6.74a.36.36,0,0,1-.07.1,3,3,0,0,1-1.74.38l-.49,0,0,.49a2.31,2.31,0,0,0,.52,1.58A2,2,0,0,0,127,537h6.27l.16,3-2,1.17,2.07,1.24.17,3-2.24,1.36,2.38,1.41.14,2.67-2.52,1.53,2.69,1.6.12,2.28-2.81,1.69,3,1.79.58,10.88,3.06,3.56a1.79,1.79,0,0,0,1.28.62h.09a1.83,1.83,0,0,0,1.28-.53l3.36-4.07.71-12.73c1.28-.53,2.09-1.13,2-1.8l0-.22L145,554.22l.14-2.5c1-.49,1.67-1,1.58-1.62l-.78-1.37-.36-.7-.26.37.13-2.33c1.05-.49,1.69-1,1.61-1.64l-.83-1.4-.37-.69-.21.31.12-2.2c1.11-.51,1.79-1.08,1.7-1.71l-.88-1.44-.19-.34h5.83a2,2,0,0,0,1.48-.58A2.2,2.2,0,0,0,154.25,534.8Zm-6.57-5.13c0-1.3.07-2.49.07-3s1.05-1.39,1.92-1.39a.9.9,0,0,1,.75.34,2.54,2.54,0,0,1,.38,1.55l0,6.87-3.29,0C147.61,532.7,147.66,531.17,147.68,529.67Zm3-5.12a1.91,1.91,0,0,0-1.06-.31,3.29,3.29,0,0,0-2.17,1,3.7,3.7,0,0,0-.43-1.51,3.46,3.46,0,0,0-1.46-1h2.59A2.67,2.67,0,0,1,150.73,524.55Zm-22.39,9.34a1.16,1.16,0,0,0,0-.18v-6.58a2.54,2.54,0,0,1,.38-1.55.88.88,0,0,1,.74-.34c.87,0,1.92.85,1.92,1.39v.11c-.06.67-.09,1.44-.09,2.35,0,.59,0,1.24,0,1.94,0,1.24.12,2.33.17,2.94l-3.2,0Zm4.48-8.14a2.48,2.48,0,0,1,1.87-2,16,16,0,0,1,4.72-.45c4.7,0,6.22.68,6.67,1.24,0,.08.32.71.32,4.46,0,1.9-.07,3.76-.11,4.72H132.78A40.41,40.41,0,0,1,132.82,525.75Zm-1.77-3h2.66a3.64,3.64,0,0,0-2.05,2.47,3.3,3.3,0,0,0-2.16-.94,1.93,1.93,0,0,0-1,.25A2.66,2.66,0,0,1,131.05,522.71Zm3.23,14.5,10.69.06,0,.41c-1.2.45-4,1.15-10.33,1.62h-.11l-.1.06Zm1.75,33-.56-10.63a55.44,55.44,0,0,0,8.34-1.76l-.08,1.48-4.42,14.45a.75.75,0,0,1-.44-.25Zm3.61,3.54,1.06-1-.67.81A.72.72,0,0,1,139.64,573.76ZM144,554.5c-.46.3-2.25,1.07-8.72,1.61l-.11-2.06a53.37,53.37,0,0,0,9-1.92Zm.3-5.42c-1.13.41-3.7,1-9.31,1.49l-.11-2.06a55.76,55.76,0,0,0,9.57-2Zm.32-5.7c-1.15.43-3.84,1.1-9.93,1.57l-.1-2,.16,0a59,59,0,0,0,10-2.1ZM146,537v0h0Zm7-1.28a1,1,0,0,1-.74.26H127a.93.93,0,0,1-.74-.26,1,1,0,0,1-.2-.37,4.31,4.31,0,0,0,1.41-.32l4.71,0H147l4.8,0a4.26,4.26,0,0,0,1.4.32A.84.84,0,0,1,153,535.7Z"/><polygon class="cls-1" points="78.99 426.08 76.99 426.08 76.99 343.08 243.64 343.08 243.64 345.08 78.99 345.08 78.99 426.08"/><polygon class="cls-1" points="240.72 354.05 257.99 344.08 240.72 334.11 240.72 354.05"/></g></g></svg>