<svg xmlns="http://www.w3.org/2000/svg" viewBox="0 0 240.11 402.02"><defs><style>.cls-1{fill:#fff;}</style></defs><title>mobile-tools</title><g id="Layer_2" data-name="Layer 2"><g id="Layer_1-2" data-name="Layer 1"><path class="cls-1" d="M8.83,367.19l-.59,1.5a4.53,4.53,0,0,0-2.65-.61,3.15,3.15,0,0,0-2.72,1.46,6.4,6.4,0,0,0-1,3.76,5.68,5.68,0,0,0,1,3.56,3.27,3.27,0,0,0,2.71,1.37A3.3,3.3,0,0,0,8.39,377l1,1.34a5.36,5.36,0,0,1-3.94,1.52,4.81,4.81,0,0,1-4-1.82A7.44,7.44,0,0,1,0,373.19a7.37,7.37,0,0,1,1.55-4.79,4.9,4.9,0,0,1,4-1.9A6.53,6.53,0,0,1,8.83,367.19Z"/><path class="cls-1" d="M16.37,371.79a1.88,1.88,0,0,0-1.1-.38,1.93,1.93,0,0,0-1.55.82,3,3,0,0,0-.67,2v5.4H11.38v-9.41h1.67v1.5A2.93,2.93,0,0,1,15.77,370a8.19,8.19,0,0,1,1.29.16Z"/><path class="cls-1" d="M26.17,375.05H19.39a3.41,3.41,0,0,0,.9,2.54,2.87,2.87,0,0,0,2.06.77,3.53,3.53,0,0,0,2.39-.83l.7,1.2a3.08,3.08,0,0,1-1.18.67,6.56,6.56,0,0,1-2.23.37,4.15,4.15,0,0,1-3-1.21A4.71,4.71,0,0,1,17.63,375a5,5,0,0,1,1.42-3.73A4.09,4.09,0,0,1,22,370a4.28,4.28,0,0,1,3.16,1.14A3.86,3.86,0,0,1,26.31,374,3.64,3.64,0,0,1,26.17,375.05Zm-4.05-3.64a2.6,2.6,0,0,0-1.87.72,2.64,2.64,0,0,0-.82,1.7h5.21a2.37,2.37,0,0,0-.63-1.68A2.43,2.43,0,0,0,22.12,371.41Z"/><path class="cls-1" d="M27.45,379l.59-1.58a4.51,4.51,0,0,0,2.25.91c1,0,1.54-.43,1.54-1.3,0-.62-.49-1.15-1.49-1.6a11.62,11.62,0,0,1-1.55-.8,3.49,3.49,0,0,1-.7-.62,2.68,2.68,0,0,1-.44-.74,2.55,2.55,0,0,1-.14-.84,2.17,2.17,0,0,1,.84-1.81,3.56,3.56,0,0,1,2.21-.65,7.11,7.11,0,0,1,2.59.65l-.47,1.55a3.18,3.18,0,0,0-2-.79,1.69,1.69,0,0,0-1,.28.82.82,0,0,0-.41.71,1.47,1.47,0,0,0,1,1.37l1.19.55a4.12,4.12,0,0,1,1.6,1.14,2.56,2.56,0,0,1,.5,1.61,2.39,2.39,0,0,1-.89,2,3.8,3.8,0,0,1-2.46.72A5.6,5.6,0,0,1,27.45,379Z"/><path class="cls-1" d="M34.73,379l.59-1.58a4.51,4.51,0,0,0,2.25.91c1,0,1.55-.43,1.55-1.3,0-.62-.5-1.15-1.49-1.6a11.62,11.62,0,0,1-1.55-.8,3.49,3.49,0,0,1-.7-.62,2.46,2.46,0,0,1-.44-.74,2.32,2.32,0,0,1-.14-.84,2.17,2.17,0,0,1,.84-1.81,3.54,3.54,0,0,1,2.21-.65,7.16,7.16,0,0,1,2.59.65L40,372.2a3.16,3.16,0,0,0-2-.79,1.74,1.74,0,0,0-1,.28.84.84,0,0,0-.41.71,1.48,1.48,0,0,0,1,1.37l1.2.55a4.2,4.2,0,0,1,1.6,1.14,2.56,2.56,0,0,1,.5,1.61,2.42,2.42,0,0,1-.89,2,3.8,3.8,0,0,1-2.46.72A5.67,5.67,0,0,1,34.73,379Z"/><path class="cls-1" d="M50.56,375.05H43.78a3.41,3.41,0,0,0,.9,2.54,2.87,2.87,0,0,0,2.06.77,3.53,3.53,0,0,0,2.39-.83l.7,1.2a3.08,3.08,0,0,1-1.18.67,6.56,6.56,0,0,1-2.23.37,4.15,4.15,0,0,1-3-1.21A4.71,4.71,0,0,1,42,375a5,5,0,0,1,1.42-3.73,4.09,4.09,0,0,1,3-1.26,4.28,4.28,0,0,1,3.16,1.14A3.86,3.86,0,0,1,50.7,374,3.64,3.64,0,0,1,50.56,375.05Zm-4.05-3.64a2.6,2.6,0,0,0-1.87.72,2.64,2.64,0,0,0-.82,1.7H49a2.37,2.37,0,0,0-.63-1.68A2.43,2.43,0,0,0,46.51,371.41Z"/><path class="cls-1" d="M58.25,379.59v-5.47a3.63,3.63,0,0,0-.46-2.11,1.76,1.76,0,0,0-1.51-.6,2.5,2.5,0,0,0-1.2.34,2.75,2.75,0,0,0-1,.85v7H52.45v-9.41H53.6l.52,1.21a2.91,2.91,0,0,1,2.7-1.39c2.06,0,3.1,1.26,3.1,3.76v5.83Z"/><path class="cls-1" d="M62.89,371.5H61.8v-1.32h1.09v-2l1.67-.64v2.61h2.58v1.32H64.56v4.67a2.72,2.72,0,0,0,.4,1.69,1.54,1.54,0,0,0,1.28.5,3.2,3.2,0,0,0,1.33-.32l.25,1.46a9.08,9.08,0,0,1-2.28.27,2.51,2.51,0,0,1-1.89-.83,3,3,0,0,1-.76-2.1Z"/><path class="cls-1" d="M15.07,401.37h-.55l-3.07-8.88-2.87,8.88H8L4,388.31H5.8l2.58,9,2.83-9h.62l2.79,9,2.63-9h1.83Z"/><path class="cls-1" d="M24.59,393.39a1.88,1.88,0,0,0-1.1-.38,1.94,1.94,0,0,0-1.55.82,3,3,0,0,0-.67,2v5.4H19.6v-9.41h1.67v1.5A2.93,2.93,0,0,1,24,391.6a7.14,7.14,0,0,1,1.29.16Z"/><path class="cls-1" d="M34.4,396.65H27.61a3.37,3.37,0,0,0,.91,2.54,2.85,2.85,0,0,0,2.05.77,3.51,3.51,0,0,0,2.39-.83l.71,1.2a3.21,3.21,0,0,1-1.19.67,6.56,6.56,0,0,1-2.23.37,4.15,4.15,0,0,1-3-1.21,4.71,4.71,0,0,1-1.38-3.57,5,5,0,0,1,1.42-3.73,4.1,4.1,0,0,1,3-1.26,4.26,4.26,0,0,1,3.15,1.14,3.86,3.86,0,0,1,1.11,2.89A4.06,4.06,0,0,1,34.4,396.65ZM30.34,393a2.62,2.62,0,0,0-1.87.72,2.58,2.58,0,0,0-.81,1.7h5.21a2.33,2.33,0,0,0-.64-1.68A2.43,2.43,0,0,0,30.34,393Z"/><path class="cls-1" d="M42.08,401.19v-5.47a3.56,3.56,0,0,0-.46-2.11,1.76,1.76,0,0,0-1.51-.6,2.5,2.5,0,0,0-1.2.34,2.7,2.7,0,0,0-.95.84v7H36.29v-9.41h1.14L38,393a2.88,2.88,0,0,1,2.69-1.39c2.07,0,3.1,1.26,3.1,3.76v5.83Z"/><path class="cls-1" d="M53.22,392.54l-.82,1.18a2.44,2.44,0,0,0-.9-.48,3.63,3.63,0,0,0-1.27-.23,2.71,2.71,0,0,0-2.17.95,4,4,0,0,0-.8,2.62,3.57,3.57,0,0,0,.82,2.52,3,3,0,0,0,2.27.86,3.77,3.77,0,0,0,2.27-.87l.66,1.41a6,6,0,0,1-3.34.87,4.23,4.23,0,0,1-3.18-1.3,4.77,4.77,0,0,1-1.25-3.49,5,5,0,0,1,1.3-3.62,4.74,4.74,0,0,1,3.57-1.36,5.52,5.52,0,0,1,2.84.94Z"/><path class="cls-1" d="M60.83,401.19v-5.91a2.52,2.52,0,0,0-.51-1.67,1.84,1.84,0,0,0-1.46-.6,2.47,2.47,0,0,0-1.22.35,3,3,0,0,0-.94.83v7H55V387.92H56.7v4.89a2.53,2.53,0,0,1,1.08-.86,3.6,3.6,0,0,1,1.53-.35,2.94,2.94,0,0,1,2.35,1,4,4,0,0,1,.84,2.69v5.91Z"/><path class="cls-1" d="M148.5,209.35h-2.6V196.47c1.66-.06,2.71-.08,3.18-.08a5.64,5.64,0,0,1,4.27,1.63,6.05,6.05,0,0,1,1.57,4.37Q154.92,209.35,148.5,209.35Zm-.84-11.29v9.62a9.89,9.89,0,0,0,1.46.09,3.43,3.43,0,0,0,2.9-1.39,6.22,6.22,0,0,0,1.06-3.84q0-4.57-4.11-4.57C148.81,198,148.37,198,147.66,198.06Z"/><path class="cls-1" d="M161.93,201.54a1.93,1.93,0,0,0-1.1-.37,2,2,0,0,0-1.55.81,3,3,0,0,0-.67,2v5.4h-1.67v-9.41h1.67v1.5a2.93,2.93,0,0,1,2.72-1.68,7.14,7.14,0,0,1,1.29.16Z"/><path class="cls-1" d="M164.62,209.35v-8h-1.3v-1.4h3v9.41Zm.91-13a1,1,0,0,1,.73.3,1,1,0,0,1,.31.72,1,1,0,0,1-1,1,1,1,0,0,1-1-1,1,1,0,0,1,.3-.72A1,1,0,0,1,165.53,196.38Z"/><path class="cls-1" d="M169.07,206.69V196.08h1.67V206.4a1.62,1.62,0,0,0,.44,1.2,1.53,1.53,0,0,0,1.13.43v1.49Q169.07,209.52,169.07,206.69Z"/><path class="cls-1" d="M174.38,206.69V196.08h1.67V206.4a1.59,1.59,0,0,0,.44,1.2,1.5,1.5,0,0,0,1.13.43v1.49Q174.38,209.52,174.38,206.69Z"/><path class="cls-1" d="M196.57,42.36H152.92a8.8,8.8,0,1,1,0-17.59h43.65a8.8,8.8,0,1,1,0,17.59ZM152.92,25.19a8.38,8.38,0,1,0,0,16.75h43.65a8.38,8.38,0,1,0,0-16.75Z"/><path class="cls-1" d="M205.16,58.76a.2.2,0,0,1-.16-.07L191.37,41.94h5.2a8.38,8.38,0,1,0,0-16.75h-5.14l11.72-18a.21.21,0,0,1,.29-.06.22.22,0,0,1,.06.29L192.19,24.77h4.38a8.8,8.8,0,1,1,0,17.59h-4.32l13.07,16.06a.22.22,0,0,1,0,.3A.2.2,0,0,1,205.16,58.76Z"/><path class="cls-1" d="M197.7,49.6H148.63a16.55,16.55,0,0,1,0-33.1h48.55a.21.21,0,0,1,.21.21.21.21,0,0,1-.21.21H148.63a16.13,16.13,0,1,0,0,32.26H197.7a.21.21,0,0,1,.21.21A.21.21,0,0,1,197.7,49.6Z"/><path class="cls-1" d="M148.61,151.4A63.36,63.36,0,0,1,132,148.85l-.69-.21.7-.19a52.35,52.35,0,0,0,8.62-3.25c4.08-2,9.27-5.29,10.81-9.83,2.49-7.32.37-13.23-2.85-22.17-.69-1.92-1.41-3.91-2.15-6.11-1.12-3.31-1.93-6.47-2.71-9.53-1.12-4.36-2.08-8.12-3.61-10.94L140,86.5l.1-.11c5.81-6.32,14-13.42,20.21-11.42,4,1.29,6.56,6.25,7.57,14.74,2.46,20.67,5,42-2.72,54.77C161.89,149.88,155.16,151.4,148.61,151.4Zm-15.82-2.74c4.11,1.16,25.4,6.52,32-4.4,7.66-12.6,5.12-33.9,2.66-54.5-1-8.31-3.44-13.16-7.28-14.4-3.28-1.06-9.37,0-19.67,11.2,1.51,2.84,2.47,6.58,3.57,10.9.78,3.05,1.59,6.21,2.7,9.5.75,2.2,1.46,4.18,2.15,6.1,3.25,9,5.39,15,2.86,22.44-1.6,4.68-6.88,8.07-11,10.08A54.5,54.5,0,0,1,132.79,148.66Z"/><path class="cls-1" d="M56.48,48.61a.21.21,0,0,1-.21-.21V17.24a.21.21,0,0,1,.21-.21.21.21,0,0,1,.21.21V48.4A.22.22,0,0,1,56.48,48.61Z"/><path class="cls-1" d="M213.53,25.94h-3.86a.92.92,0,1,0,0,1.83h3.86a.92.92,0,0,0,0-1.83Z"/><path class="cls-1" d="M213.53,30.41h-3.87a.92.92,0,0,0,0,1.83h3.87a.92.92,0,0,0,0-1.83Z"/><path class="cls-1" d="M213.53,34.89h-3.86a.92.92,0,1,0,0,1.83h3.86a.92.92,0,0,0,0-1.83Z"/><path class="cls-1" d="M213.53,39.36h-3.86a.92.92,0,1,0,0,1.83h3.86a.92.92,0,0,0,0-1.83Z"/><path class="cls-1" d="M222.24,25.94h-3.86a.92.92,0,1,0,0,1.83h3.86a.92.92,0,0,0,0-1.83Z"/><path class="cls-1" d="M222.24,30.41h-3.86a.92.92,0,1,0,0,1.83h3.86a.92.92,0,0,0,0-1.83Z"/><path class="cls-1" d="M222.24,34.89h-3.86a.92.92,0,1,0,0,1.83h3.86a.92.92,0,0,0,0-1.83Z"/><path class="cls-1" d="M222.24,39.36h-3.86a.92.92,0,1,0,0,1.83h3.86a.92.92,0,0,0,0-1.83Z"/><path class="cls-1" d="M199.32,176.1H117.38V160h83.73Zm-79.94-2h78.15L198.87,162H119.38Z"/><path class="cls-1" d="M164,8.73H145.63a3.24,3.24,0,0,1,0-6.48h2.06A3.26,3.26,0,0,1,150.78,0h8.05a3.25,3.25,0,0,1,3.09,2.25H164a3.24,3.24,0,1,1,0,6.48ZM145.63,4.25a1.24,1.24,0,0,0,0,2.48H164a1.24,1.24,0,1,0,0-2.48h-3.9v-1A1.25,1.25,0,0,0,158.83,2h-8.05a1.25,1.25,0,0,0-1.24,1.25v1Z"/><path class="cls-1" d="M87.8,52.14H68.89a25.81,25.81,0,0,1-5.54-.73L43.33,46A4.76,4.76,0,0,1,40,41.59V24.3a4.79,4.79,0,0,1,3.34-4.41l20-5.68a24.2,24.2,0,0,1,5.55-.78H87.8ZM68.89,15.52a22,22,0,0,0-5,.69l-20,5.68a2.73,2.73,0,0,0-1.82,2.41V41.59A2.7,2.7,0,0,0,43.87,44l20,5.43a23.4,23.4,0,0,0,5,.66H85.71V15.52Z"/><path class="cls-1" d="M42,41.41,29.16,36.83V28.75L42,24.17Zm-10.76-6,8.68,3.1V27.12l-8.68,3.1Z"/><path class="cls-1" d="M105.62,56l-.37,0L89.32,54.36a4.09,4.09,0,0,1-3.61-4V15.53a4.1,4.1,0,0,1,3.61-4L105.25,10a3.44,3.44,0,0,1,3.81,3.45V52.5A3.42,3.42,0,0,1,105.62,56ZM89.52,13.61a2,2,0,0,0-1.72,1.92V50.38a2,2,0,0,0,1.72,1.91l15.93,1.59a1.36,1.36,0,0,0,1.08-.34,1.34,1.34,0,0,0,.44-1V13.4A1.33,1.33,0,0,0,105.45,12Z"/><path class="cls-1" d="M117.22,58.17h-5A5.21,5.21,0,0,1,107,53V13.19A5.21,5.21,0,0,1,112.18,8h5a5.2,5.2,0,0,1,5.2,5.2V53A5.2,5.2,0,0,1,117.22,58.17Zm-5-48.1a3.12,3.12,0,0,0-3.12,3.12V53a3.12,3.12,0,0,0,3.12,3.12h5A3.12,3.12,0,0,0,120.34,53V13.19a3.12,3.12,0,0,0-3.12-3.12Z"/><path class="cls-1" d="M199.35,176.14h-82V159.6l14.2-11.89.23-.06c.16,0,16-4.26,18.85-12.55,2.4-7,.31-12.84-2.84-21.62-.7-1.92-1.41-3.91-2.16-6.12-1.13-3.34-2-6.67-2.73-9.6-2.14-8.38-3.69-14.43-9.47-15.25l-2-.3,1.44-1.46c.1-.1,9.78-10.09,4.91-18.31l-.44-.75A71.42,71.42,0,0,1,121,57.11l-.63-.27V9.33l.63-.27a69.12,69.12,0,0,1,14.86-4.33l.54-.1.39.39a5.51,5.51,0,0,0,3.92,1.63h35.74a5.57,5.57,0,0,0,4.81-2.8l.33-.58.66.06a217.47,217.47,0,0,1,47.23,9.44l.71.23v2.79a20,20,0,0,1,0,34.58v2.79l-.71.23a215.55,215.55,0,0,1-39.79,8.66,9.14,9.14,0,0,0-6.89,4.42c-1.93,3.32-3.11,10.08,2.21,23.37,5.71,14.3,4.08,29.91,3,40.24-.47,4.49-.84,8-.54,10.21,1,6.87,13.71,9.64,13.84,9.67l.92.2Zm-79.93-2.08h78.07L200,151.78c-3.21-.83-13.55-4-14.55-11.2-.34-2.44,0-6.09.52-10.72,1.06-10.12,2.66-25.42-2.87-39.24-4.45-11.14-5.17-19.85-2.07-25.2A11.13,11.13,0,0,1,189.42,60a213.13,213.13,0,0,0,38.69-8.33V49.14l.55-.29a18,18,0,0,0,0-31.54l-.55-.29v-2.5A215.71,215.71,0,0,0,182.7,5.46a7.66,7.66,0,0,1-6.25,3.27H140.71a7.55,7.55,0,0,1-5-1.86,67.71,67.71,0,0,0-13.27,3.83V55.47a72.4,72.4,0,0,0,15.66,4.25l.48.08.93,1.58c2.37,4,2.2,8.91-.5,14.17a29.89,29.89,0,0,1-3.53,5.31c5.71,1.92,7.44,8.67,9.41,16.38.78,3,1.58,6.19,2.68,9.45.74,2.19,1.46,4.17,2.14,6.09,3.31,9.19,5.49,15.26,2.87,23-3,8.87-17.95,13.25-20.08,13.83l-13.1,11ZM229.15,52.4h0Z"/><path class="cls-1" d="M133.56,82.52h-5.89c-2.16,0-3.72-1-3.72-2.31V78.94a1,1,0,0,1,1-1c.49,0,2.11-2.48,2.11-8s-1.62-8-2.11-8a1,1,0,0,1-1-1V59.65c0-1.34,1.56-2.31,3.72-2.31a1,1,0,1,1,0,2.08,3.07,3.07,0,0,0-1.64.38v.33c2.16,1.09,3.15,5.58,3.15,9.8s-1,8.71-3.15,9.8v.32a3,3,0,0,0,1.64.38h5.89a1,1,0,1,1,0,2.09Z"/><path class="cls-1" d="M196.57,43.19H152.92a9.63,9.63,0,1,1,0-19.25h43.65a9.63,9.63,0,1,1,0,19.25ZM152.92,26a7.55,7.55,0,1,0,0,15.09h43.65a7.55,7.55,0,1,0,0-15.09Z"/><path class="cls-1" d="M205.16,59.6a1,1,0,0,1-.81-.39l-14.73-18.1h6.95a7.55,7.55,0,1,0,0-15.09h-6.68L202.45,6.69a1,1,0,0,1,1.75,1.14L193.73,23.94h2.84a9.63,9.63,0,1,1,0,19.25H194L206,57.9a1,1,0,0,1-.81,1.7Z"/><path class="cls-1" d="M197.7,50.43H148.63a17.38,17.38,0,0,1,0-34.76h48.55a1,1,0,0,1,0,2.08H148.63a15.3,15.3,0,0,0,0,30.6H197.7a1,1,0,0,1,0,2.08Z"/><path class="cls-1" d="M148.63,152.28a61.79,61.79,0,0,1-14.27-1.91,1.78,1.78,0,0,1-1.37-1.68,1.8,1.8,0,0,1,1.23-1.79c4.21-1.42,14.23-5.4,16.4-11.8,2.4-7,.31-12.84-2.84-21.62-.7-1.92-1.41-3.91-2.16-6.12-1.13-3.34-2-6.66-2.73-9.59-1.1-4.31-2-8-3.53-10.75l-.34-.63.46-.54c6-6.52,14.5-13.81,21.11-11.68,4.34,1.41,7.08,6.6,8.13,15.44,2.49,20.81,5.05,42.33-2.83,55.3C162.4,150.65,155.43,152.28,148.63,152.28Zm-12.87-3.71a57.53,57.53,0,0,0,14.25,1.6c7-.25,11.69-2.38,14.1-6.34,7.51-12.36,5-33.52,2.55-54-.95-8-3.21-12.57-6.71-13.71-4.25-1.37-10.77,2.37-18.42,10.55a56.08,56.08,0,0,1,3.38,10.55c.78,3,1.58,6.18,2.68,9.44.74,2.19,1.46,4.17,2.14,6.09,3.31,9.19,5.49,15.26,2.87,23C150.33,142.43,141.44,146.56,135.76,148.57Zm-1.2-.69Z"/><path class="cls-1" d="M56.48,49a.63.63,0,0,1-.63-.62V17.24a.63.63,0,1,1,1.25,0V48.4A.62.62,0,0,1,56.48,49Z"/><path class="cls-1" d="M56.48,49.4a1,1,0,0,1-1-1V17.23a1,1,0,0,1,2,0V48.4A1,1,0,0,1,56.48,49.4Zm0-32.41a.25.25,0,0,0-.25.24V48.4c0,.28.5.28.5,0V17.23A.25.25,0,0,0,56.48,17Z"/><path class="cls-1" d="M213.53,25.94h-3.86a.92.92,0,1,0,0,1.83h3.86a.92.92,0,0,0,0-1.83Z"/><path class="cls-1" d="M213.53,30.41h-3.87a.92.92,0,0,0,0,1.83h3.87a.92.92,0,0,0,0-1.83Z"/><path class="cls-1" d="M213.53,34.89h-3.86a.92.92,0,1,0,0,1.83h3.86a.92.92,0,0,0,0-1.83Z"/><path class="cls-1" d="M213.53,39.36h-3.86a.92.92,0,1,0,0,1.83h3.86a.92.92,0,0,0,0-1.83Z"/><path class="cls-1" d="M222.24,25.94h-3.86a.92.92,0,1,0,0,1.83h3.86a.92.92,0,0,0,0-1.83Z"/><path class="cls-1" d="M222.24,30.41h-3.86a.92.92,0,1,0,0,1.83h3.86a.92.92,0,0,0,0-1.83Z"/><path class="cls-1" d="M222.24,34.89h-3.86a.92.92,0,1,0,0,1.83h3.86a.92.92,0,0,0,0-1.83Z"/><path class="cls-1" d="M222.24,39.36h-3.86a.92.92,0,1,0,0,1.83h3.86a.92.92,0,0,0,0-1.83Z"/><path class="cls-1" d="M34,349a20.56,20.56,0,0,1-20.63-21.07l3.26-130.81L2.21,167.05V152.78H45.42l4.43-4.43v-32.3l1.12.13c.24,0,24,3.27,30.78,37.41h0c.29,1.48,1.18,6-14.5,25.7-6.84,8.58-13.93,16.39-15.39,18L54.61,328A20.56,20.56,0,0,1,34,349ZM4.21,166.59l14.47,30.1v.24L15.41,328a18.6,18.6,0,1,0,37.2.07L49.84,196.52l.28-.29c8.71-9.43,31-35.4,29.67-42.25-5.62-28.42-23.3-34.48-27.94-35.59v30.79l-5.6,5.6h-42Zm28.9,168.54A4.85,4.85,0,1,1,38,330.29,4.84,4.84,0,0,1,33.11,335.13Zm0-7.69A2.85,2.85,0,1,0,36,330.29,2.85,2.85,0,0,0,33.11,327.44Z"/><path class="cls-1" d="M36.26,154.2H16.67v-1c0-31.54,23.74-36.95,24-37l1.21-.26V148.6Zm-17.58-2H35.43l4.43-4.43V118.49C35.22,120,19.09,126.86,18.68,152.2Z"/><path class="cls-1" d="M45.48,187.34h-17a4.92,4.92,0,0,1-4.92-4.91V169.19a4.93,4.93,0,0,1,4.92-4.92h17a4.93,4.93,0,0,1,4.92,4.92v13.24A4.92,4.92,0,0,1,45.48,187.34Zm-17-21.07a2.92,2.92,0,0,0-2.92,2.92v13.24a2.92,2.92,0,0,0,2.92,2.91h17a2.92,2.92,0,0,0,2.92-2.91V169.19a2.92,2.92,0,0,0-2.92-2.92Z"/><rect class="cls-1" x="28.08" y="165.27" width="2" height="21.07"/><rect class="cls-1" x="33.33" y="165.27" width="2" height="21.07"/><rect class="cls-1" x="38.58" y="165.27" width="2" height="21.07"/><rect class="cls-1" x="43.83" y="165.27" width="2" height="21.07"/><path class="cls-1" d="M131.14,373.75l-.6-.41v-6.23H137v1.49h-4.74v3.13a2.69,2.69,0,0,1,1.65-.48,3.44,3.44,0,0,1,2.74,1.07,4.45,4.45,0,0,1,.94,3.05c0,3.23-1.43,4.84-4.31,4.84a4.47,4.47,0,0,1-3-1l.68-1.47a3.68,3.68,0,0,0,2.3,1c1.65,0,2.48-1,2.48-3.1s-.82-2.88-2.44-2.88A2.83,2.83,0,0,0,131.14,373.75Z"/><path class="cls-1" d="M141.61,380H140.2l4.67-12.93h1.39Z"/><path class="cls-1" d="M152.35,380v-9.87l-2.61,1.63v-1.64a14,14,0,0,0,2.11-1.38,10.32,10.32,0,0,0,1.73-1.67h.53V380Z"/><path class="cls-1" d="M163.32,366.93l.86.94a7.45,7.45,0,0,0-2.24,2.08,6.75,6.75,0,0,0-1.62,2.73,2.78,2.78,0,0,1,2-.7,3.56,3.56,0,0,1,2.73,1.09,4.15,4.15,0,0,1,1,3,4.28,4.28,0,0,1-1.06,3,3.46,3.46,0,0,1-2.66,1.16c-2.82,0-4.23-1.88-4.23-5.62a8.59,8.59,0,0,1,1.65-4.79A6.52,6.52,0,0,1,163.32,366.93ZM160,376c0,1.83.75,2.75,2.26,2.75a1.81,1.81,0,0,0,1.5-.71,3.56,3.56,0,0,0,0-3.85,1.83,1.83,0,0,0-1.5-.73C160.75,373.47,160,374.32,160,376Z"/><path class="cls-1" d="M181,380v-6.23h-5.62V380H173.6V367.16h1.76v5.16H181v-5.16h1.76V380Z"/><path class="cls-1" d="M193.17,375.49h-6.78a3.41,3.41,0,0,0,.9,2.54,2.82,2.82,0,0,0,2.06.78,3.5,3.5,0,0,0,2.39-.84l.7,1.2a3.13,3.13,0,0,1-1.19.67,6.29,6.29,0,0,1-2.23.37,4.16,4.16,0,0,1-3-1.2,4.74,4.74,0,0,1-1.38-3.57A5.06,5.06,0,0,1,186,371.7a4.16,4.16,0,0,1,3-1.25,4.29,4.29,0,0,1,3.16,1.13,3.91,3.91,0,0,1,1.1,2.89A3.65,3.65,0,0,1,193.17,375.49Zm-4-3.64a2.64,2.64,0,0,0-2.69,2.43h5.21a2.38,2.38,0,0,0-.63-1.69A2.47,2.47,0,0,0,189.12,371.85Z"/><path class="cls-1" d="M200.79,380l-2.57-3.43L195.93,380h-2l3.42-4.82-3.14-4.6h1.88l2.11,3.24,2.37-3.24h1.84l-3.42,4.6,3.75,4.82Z"/><path class="cls-1" d="M131.57,401.85H129V389c1.65-.06,2.71-.08,3.17-.08a5.64,5.64,0,0,1,4.27,1.63,6.05,6.05,0,0,1,1.57,4.37Q138,401.85,131.57,401.85Zm-.84-11.29v9.62a10,10,0,0,0,1.46.09,3.43,3.43,0,0,0,2.9-1.39,6.15,6.15,0,0,0,1.06-3.84q0-4.57-4.11-4.57C131.88,390.47,131.44,390.5,130.73,390.56Z"/><path class="cls-1" d="M145,394a1.93,1.93,0,0,0-1.1-.37,2,2,0,0,0-1.55.81,3.07,3.07,0,0,0-.67,2v5.4H140v-9.41h1.67v1.5a2.93,2.93,0,0,1,2.72-1.68,7.14,7.14,0,0,1,1.29.16Z"/><path class="cls-1" d="M147.69,401.85v-8H146.4v-1.4h3v9.41Zm.91-13a1,1,0,0,1,.73.3,1,1,0,0,1,.31.72,1,1,0,1,1-2.07,0,1,1,0,0,1,.3-.72A1,1,0,0,1,148.6,388.88Z"/><path class="cls-1" d="M155.4,402H155l-4-9.61h1.83l2.49,6.59,2.54-6.59h1.75Z"/><path class="cls-1" d="M168.75,397.31H162a3.39,3.39,0,0,0,.91,2.54,2.83,2.83,0,0,0,2.05.77,3.49,3.49,0,0,0,2.39-.84L168,401a3.21,3.21,0,0,1-1.19.67,6.56,6.56,0,0,1-2.23.36,4.18,4.18,0,0,1-3-1.2,4.71,4.71,0,0,1-1.38-3.57,5,5,0,0,1,1.42-3.73,4.09,4.09,0,0,1,3-1.26,4.3,4.3,0,0,1,3.16,1.13,3.88,3.88,0,0,1,1.11,2.9A3.75,3.75,0,0,1,168.75,397.31Zm-4.05-3.64a2.64,2.64,0,0,0-2.69,2.42h5.22a2.42,2.42,0,0,0-.64-1.69A2.46,2.46,0,0,0,164.7,393.67Z"/><path class="cls-1" d="M175.76,394a1.91,1.91,0,0,0-1.1-.37,2,2,0,0,0-1.55.81,3.06,3.06,0,0,0-.66,2v5.4h-1.67v-9.41h1.67v1.5a2.92,2.92,0,0,1,2.71-1.68,7.14,7.14,0,0,1,1.29.16Z"/><path class="cls-1" d="M186.87,401.85H183.2V389c1.56-.07,2.69-.11,3.38-.11a4.66,4.66,0,0,1,2.95.82,2.81,2.81,0,0,1,1.05,2.35,2.39,2.39,0,0,1-.67,1.64,2.86,2.86,0,0,1-1.48.92,4,4,0,0,1,2.23,1.22,3.53,3.53,0,0,1,.7,2.32,3.32,3.32,0,0,1-1.24,2.71A5,5,0,0,1,186.87,401.85ZM185,390.38v3.7c.37,0,.83.05,1.37.05,1.67,0,2.5-.67,2.5-2,0-1.19-.76-1.78-2.29-1.78C185.94,390.32,185.42,390.34,185,390.38Zm0,5.06v4.91c.61.06,1.07.09,1.39.09a3.74,3.74,0,0,0,2.41-.62,2.38,2.38,0,0,0,.76-2,2.25,2.25,0,0,0-.72-1.85,3.81,3.81,0,0,0-2.42-.6Z"/><path class="cls-1" d="M194.06,401.85v-8h-1.29v-1.4h3v9.41Zm.91-13a1,1,0,0,1,.74.3,1,1,0,0,1,.3.72,1,1,0,0,1-.3.74,1,1,0,0,1-.74.3,1,1,0,0,1-.72-.3,1,1,0,0,1-.31-.74,1,1,0,0,1,.3-.72A1,1,0,0,1,195,388.88Z"/><path class="cls-1" d="M199,393.75h-1.09v-1.31H199v-2l1.67-.64v2.61h2.58v1.31h-2.58v4.68a2.74,2.74,0,0,0,.4,1.69,1.57,1.57,0,0,0,1.29.5,3.07,3.07,0,0,0,1.33-.33l.24,1.47a9,9,0,0,1-2.28.26,2.44,2.44,0,0,1-1.88-.83,3,3,0,0,1-.77-2.09Z"/><path class="cls-1" d="M164.36,343.23a41.19,41.19,0,0,1-7.11-.41c-1.92-.64-2-3.36-2-3.67l-.22-13.82.2-.27c1-1.32,2.37-3.6,2.37-4.55s-1.32-4.25-2.26-6.21l-.09-.2v-33c0-.83-2.6-2.61-4.16-3.68-2.32-1.59-4.34-3-4.61-4.5l0-.18V243.4l.28-.29c.17-.17,4.19-4.16,16.79-4.16s16.61,3.88,16.78,4l.29.3v29.44c0,2-4.95,5.79-8.21,8,0,4.25.06,30.78,0,32.19a9.23,9.23,0,0,1-.94,2.85,10.67,10.67,0,0,0-1.24,4.24c.09,2.29,2,5.61,2,5.65l.14.23v.27s0,10.5,0,11.89c0,.22,0,.45,0,.68,0,1.4.12,3.32-1.6,4A29.22,29.22,0,0,1,164.36,343.23ZM157.07,326l.21,13.16c0,.65.24,1.66.6,1.78,1.09.34,10.9.47,12.16,0,.4-.16.4-1,.36-2.11,0-.26,0-.51,0-.75,0-1.26,0-10,0-11.63-.49-.88-2.08-3.91-2.18-6.32a12.35,12.35,0,0,1,1.41-5.13,8.84,8.84,0,0,0,.77-2.14c.05-1.17,0-21.85,0-32.63v-.53l.44-.29c4-2.74,7.59-5.81,7.77-6.71V244.18c-1.07-.78-5.25-3.23-15.07-3.23s-14,2.53-15.07,3.33v28.34c.24.72,2.35,2.17,3.77,3.14,2.58,1.77,5,3.45,5,5.33v32.56c.56,1.2,2.35,5.13,2.35,6.86S157.79,325,157.07,326Z"/><path class="cls-1" d="M163.13,282.68l-.77-1a4,4,0,0,0-2.76-1.34,3.25,3.25,0,0,0-2.5,1.28l-1.65-1.14a5.34,5.34,0,0,1,4.15-2.14,5.69,5.69,0,0,1,3.55,1.34,6.4,6.4,0,0,1,3.95-1.34,7.67,7.67,0,0,1,5,2l-1.4,1.43a5.69,5.69,0,0,0-3.62-1.43,4.4,4.4,0,0,0-3.19,1.34Z"/><path class="cls-1" d="M167.54,315.63a8.66,8.66,0,0,1-4.38-1.19,7,7,0,0,1-3.45,1.18,9.27,9.27,0,0,1-4-.86l.93-1.77a7.55,7.55,0,0,0,3.07.63h0a6,6,0,0,0,2.81-1.18l.63-.49.61.5a6.49,6.49,0,0,0,3.76,1.18,3.49,3.49,0,0,0,3-1.28l1.68,1.1A5.5,5.5,0,0,1,167.54,315.63Z"/><rect class="cls-1" x="162.24" y="281.09" width="2" height="32.14"/><path class="cls-1" d="M170.69,327a7.61,7.61,0,0,0-3.63-1.59,9.86,9.86,0,0,0-3.93.82l-.49.22-.46-.29a6.61,6.61,0,0,0-3.11-.76h0a2.8,2.8,0,0,0-2.27.88l-1.64-1.15a4.82,4.82,0,0,1,3.91-1.73h0a8.76,8.76,0,0,1,3.69.82,11.49,11.49,0,0,1,4.39-.81,9.4,9.4,0,0,1,4.8,2.05Z"/><path class="cls-1" d="M147.67,273.72l-.36-2c21.23-3.86,32.2-.12,32.65,0l-.66,1.89C179.19,273.64,168.31,270,147.67,273.72Z"/><rect class="cls-1" x="157.2" y="239.95" width="2" height="31.36"/><rect class="cls-1" x="171.77" y="240.56" width="2" height="30.46"/></g></g></svg>