<svg xmlns="http://www.w3.org/2000/svg" viewBox="0 0 534.32 209.53"><defs><style>.cls-1{fill:#fff;}</style></defs><title>tools</title><g id="Layer_2" data-name="Layer 2"><g id="Layer_1-2" data-name="Layer 1"><path class="cls-1" d="M74.93,158.19l-.59,1.5a4.56,4.56,0,0,0-2.66-.61A3.16,3.16,0,0,0,69,160.54a6.4,6.4,0,0,0-1,3.76,5.68,5.68,0,0,0,1,3.56,3.27,3.27,0,0,0,2.71,1.37A3.31,3.31,0,0,0,74.49,168l1,1.34a5.38,5.38,0,0,1-3.94,1.52,4.83,4.83,0,0,1-4-1.82,7.5,7.5,0,0,1-1.45-4.8,7.37,7.37,0,0,1,1.55-4.79,4.92,4.92,0,0,1,4-1.9A6.57,6.57,0,0,1,74.93,158.19Z"/><path class="cls-1" d="M82.46,162.79a1.86,1.86,0,0,0-1.1-.38,1.94,1.94,0,0,0-1.55.82,3,3,0,0,0-.66,2v5.4H77.48v-9.41h1.67v1.5A2.92,2.92,0,0,1,81.86,161a7.14,7.14,0,0,1,1.29.16Z"/><path class="cls-1" d="M92.27,166.05H85.48a3.41,3.41,0,0,0,.91,2.54,2.86,2.86,0,0,0,2.06.77,3.55,3.55,0,0,0,2.39-.83l.7,1.2a3.13,3.13,0,0,1-1.19.67,6.56,6.56,0,0,1-2.23.37,4.13,4.13,0,0,1-3-1.21A4.71,4.71,0,0,1,83.73,166a5,5,0,0,1,1.41-3.73,4.1,4.1,0,0,1,3-1.26,4.26,4.26,0,0,1,3.15,1.14A3.86,3.86,0,0,1,92.4,165,3.65,3.65,0,0,1,92.27,166.05Zm-4-3.64a2.63,2.63,0,0,0-1.88.72,2.58,2.58,0,0,0-.81,1.7h5.21a2.37,2.37,0,0,0-.63-1.68A2.46,2.46,0,0,0,88.22,162.41Z"/><path class="cls-1" d="M93.54,170l.59-1.58a4.51,4.51,0,0,0,2.25.91c1,0,1.55-.43,1.55-1.3,0-.62-.5-1.15-1.5-1.6a13.11,13.11,0,0,1-1.55-.8,3.43,3.43,0,0,1-.69-.62,2.46,2.46,0,0,1-.44-.74,2.32,2.32,0,0,1-.15-.84,2.18,2.18,0,0,1,.85-1.81,3.53,3.53,0,0,1,2.2-.65,7.21,7.21,0,0,1,2.6.65l-.48,1.55a3.16,3.16,0,0,0-2-.79,1.72,1.72,0,0,0-1,.28.84.84,0,0,0-.41.71,1.49,1.49,0,0,0,1,1.37l1.2.55a4.2,4.2,0,0,1,1.6,1.14,2.56,2.56,0,0,1,.5,1.61,2.42,2.42,0,0,1-.89,2,3.8,3.8,0,0,1-2.46.72A5.67,5.67,0,0,1,93.54,170Z"/><path class="cls-1" d="M100.83,170l.59-1.58a4.51,4.51,0,0,0,2.25.91c1,0,1.54-.43,1.54-1.3,0-.62-.49-1.15-1.49-1.6a12.32,12.32,0,0,1-1.55-.8,3.49,3.49,0,0,1-.7-.62,2.42,2.42,0,0,1-.43-.74,2.32,2.32,0,0,1-.15-.84,2.17,2.17,0,0,1,.84-1.81,3.56,3.56,0,0,1,2.21-.65,7.11,7.11,0,0,1,2.59.65l-.47,1.55a3.18,3.18,0,0,0-2-.79,1.71,1.71,0,0,0-1,.28.84.84,0,0,0-.41.71,1.48,1.48,0,0,0,1,1.37l1.19.55a4.12,4.12,0,0,1,1.6,1.14,2.5,2.5,0,0,1,.5,1.61,2.39,2.39,0,0,1-.89,2,3.8,3.8,0,0,1-2.46.72A5.6,5.6,0,0,1,100.83,170Z"/><path class="cls-1" d="M116.66,166.05h-6.79a3.37,3.37,0,0,0,.91,2.54,2.85,2.85,0,0,0,2,.77,3.56,3.56,0,0,0,2.4-.83l.7,1.2a3.13,3.13,0,0,1-1.19.67,6.56,6.56,0,0,1-2.23.37,4.13,4.13,0,0,1-3-1.21,4.71,4.71,0,0,1-1.38-3.57,5,5,0,0,1,1.41-3.73,4.1,4.1,0,0,1,3-1.26,4.26,4.26,0,0,1,3.15,1.14,3.86,3.86,0,0,1,1.11,2.89A3.65,3.65,0,0,1,116.66,166.05Zm-4-3.64a2.63,2.63,0,0,0-1.88.72,2.58,2.58,0,0,0-.81,1.7h5.21a2.37,2.37,0,0,0-.63-1.68A2.46,2.46,0,0,0,112.61,162.41Z"/><path class="cls-1" d="M124.34,170.59v-5.47a3.65,3.65,0,0,0-.45-2.11,1.8,1.8,0,0,0-1.52-.6,2.43,2.43,0,0,0-1.19.34,2.65,2.65,0,0,0-1,.84v7h-1.67v-9.41h1.14l.53,1.21a2.89,2.89,0,0,1,2.7-1.39c2.06,0,3.09,1.26,3.09,3.76v5.83Z"/><path class="cls-1" d="M129,162.5h-1.09v-1.32H129v-2l1.67-.64v2.61h2.58v1.32h-2.58v4.67a2.72,2.72,0,0,0,.4,1.69,1.57,1.57,0,0,0,1.29.5,3.2,3.2,0,0,0,1.33-.32l.24,1.46a9,9,0,0,1-2.28.27,2.47,2.47,0,0,1-1.88-.83,3,3,0,0,1-.77-2.1Z"/><path class="cls-1" d="M151,170.77h-.55l-3.07-8.88-2.87,8.88h-.55l-4.06-13.06h1.83l2.58,9,2.83-9h.62l2.79,9,2.63-9H155Z"/><path class="cls-1" d="M160.49,162.79a1.86,1.86,0,0,0-1.1-.38,1.94,1.94,0,0,0-1.55.82,3,3,0,0,0-.66,2v5.4h-1.67v-9.41h1.67v1.5a2.92,2.92,0,0,1,2.71-1.68,7.14,7.14,0,0,1,1.29.16Z"/><path class="cls-1" d="M170.3,166.05h-6.79a3.37,3.37,0,0,0,.91,2.54,2.85,2.85,0,0,0,2.05.77,3.56,3.56,0,0,0,2.4-.83l.7,1.2a3.13,3.13,0,0,1-1.19.67,6.56,6.56,0,0,1-2.23.37,4.17,4.17,0,0,1-3-1.21,4.71,4.71,0,0,1-1.38-3.57,5,5,0,0,1,1.42-3.73,4.1,4.1,0,0,1,3-1.26,4.26,4.26,0,0,1,3.15,1.14,3.86,3.86,0,0,1,1.11,2.89A3.65,3.65,0,0,1,170.3,166.05Zm-4.05-3.64a2.63,2.63,0,0,0-1.88.72,2.58,2.58,0,0,0-.81,1.7h5.21a2.37,2.37,0,0,0-.63-1.68A2.46,2.46,0,0,0,166.25,162.41Z"/><path class="cls-1" d="M178,170.59v-5.47a3.65,3.65,0,0,0-.45-2.11,1.8,1.8,0,0,0-1.52-.6,2.43,2.43,0,0,0-1.19.34,2.65,2.65,0,0,0-1,.84v7h-1.67v-9.41h1.14l.53,1.21a2.89,2.89,0,0,1,2.7-1.39c2.06,0,3.09,1.26,3.09,3.76v5.83Z"/><path class="cls-1" d="M189.12,161.94l-.82,1.18a2.44,2.44,0,0,0-.9-.48,3.63,3.63,0,0,0-1.27-.23,2.71,2.71,0,0,0-2.17,1,4,4,0,0,0-.79,2.62,3.57,3.57,0,0,0,.81,2.52,3,3,0,0,0,2.27.86,3.75,3.75,0,0,0,2.27-.87l.66,1.41a6,6,0,0,1-3.33.87,4.24,4.24,0,0,1-3.19-1.3,4.81,4.81,0,0,1-1.25-3.49,5,5,0,0,1,1.3-3.62,4.75,4.75,0,0,1,3.58-1.36,4.6,4.6,0,0,1,1.58.31A4.47,4.47,0,0,1,189.12,161.94Z"/><path class="cls-1" d="M196.74,170.59v-5.91a2.53,2.53,0,0,0-.52-1.67,1.84,1.84,0,0,0-1.46-.6,2.47,2.47,0,0,0-1.22.35,3,3,0,0,0-.94.83v7h-1.67V157.32h1.67v4.89a2.59,2.59,0,0,1,1.08-.86,3.63,3.63,0,0,1,1.53-.35,2.94,2.94,0,0,1,2.35,1,4,4,0,0,1,.85,2.69v5.91Z"/><path class="cls-1" d="M328.12,209.35h-2.59V196.47c1.65-.05,2.71-.08,3.17-.08A5.61,5.61,0,0,1,333,198a6,6,0,0,1,1.57,4.36Q334.54,209.35,328.12,209.35Zm-.84-11.29v9.62a10,10,0,0,0,1.46.09,3.43,3.43,0,0,0,2.9-1.39,6.15,6.15,0,0,0,1.06-3.84q0-4.57-4.11-4.57C328.43,198,328,198,327.28,198.06Z"/><path class="cls-1" d="M341.55,201.54a1.91,1.91,0,0,0-1.1-.37,2,2,0,0,0-1.55.81,3.06,3.06,0,0,0-.66,2v5.4h-1.67v-9.41h1.67v1.5a2.91,2.91,0,0,1,2.71-1.68,7.14,7.14,0,0,1,1.29.16Z"/><path class="cls-1" d="M344.24,209.35v-8H343v-1.4h3v9.41Zm.91-13a1,1,0,0,1,.74.3,1,1,0,0,1,.3.73,1,1,0,0,1-.3.73,1,1,0,0,1-.74.3,1,1,0,0,1-.72-.3,1,1,0,0,1-.31-.73,1,1,0,0,1,.3-.73A1,1,0,0,1,345.15,196.38Z"/><path class="cls-1" d="M348.69,206.69V196.08h1.67v10.33a1.62,1.62,0,0,0,.44,1.19,1.54,1.54,0,0,0,1.14.43v1.5C349.78,209.53,348.69,208.58,348.69,206.69Z"/><path class="cls-1" d="M354,206.69V196.08h1.67v10.33a1.62,1.62,0,0,0,.44,1.19,1.54,1.54,0,0,0,1.14.43v1.5Q354,209.53,354,206.69Z"/><path class="cls-1" d="M449.76,161.75l-.6-.41v-6.23h6.41v1.49h-4.74v3.13a2.74,2.74,0,0,1,1.66-.48,3.43,3.43,0,0,1,2.73,1.07,4.46,4.46,0,0,1,.95,3.05q0,4.84-4.32,4.84a4.48,4.48,0,0,1-3-1l.68-1.47a3.73,3.73,0,0,0,2.3,1c1.66,0,2.48-1,2.48-3.1s-.81-2.88-2.44-2.88A2.85,2.85,0,0,0,449.76,161.75Z"/><path class="cls-1" d="M460.24,168h-1.42l4.67-12.93h1.4Z"/><path class="cls-1" d="M471,168v-9.87l-2.62,1.63v-1.64a13.47,13.47,0,0,0,2.11-1.38,10.43,10.43,0,0,0,1.74-1.67h.53V168Z"/><path class="cls-1" d="M482,154.93l.85.94a7.45,7.45,0,0,0-2.24,2.08,7,7,0,0,0-1.62,2.73,2.8,2.8,0,0,1,2-.7,3.55,3.55,0,0,1,2.73,1.09,4.15,4.15,0,0,1,1,3,4.28,4.28,0,0,1-1.06,3,3.44,3.44,0,0,1-2.66,1.15q-4.23,0-4.23-5.61a8.59,8.59,0,0,1,1.65-4.79A6.51,6.51,0,0,1,482,154.93ZM478.62,164c0,1.83.76,2.75,2.26,2.75a1.78,1.78,0,0,0,1.5-.72,3,3,0,0,0,.55-1.89,3,3,0,0,0-.58-2,1.81,1.81,0,0,0-1.49-.73C479.37,161.47,478.62,162.32,478.62,164Z"/><path class="cls-1" d="M499.6,168v-6.23H494V168h-1.76V155.16H494v5.16h5.62v-5.16h1.76V168Z"/><path class="cls-1" d="M511.79,163.49H505a3.41,3.41,0,0,0,.9,2.54,2.83,2.83,0,0,0,2.06.77,3.48,3.48,0,0,0,2.39-.83l.7,1.2a3.08,3.08,0,0,1-1.18.67,6.32,6.32,0,0,1-2.23.37,4.18,4.18,0,0,1-3-1.2,4.74,4.74,0,0,1-1.38-3.57,5,5,0,0,1,1.42-3.74,4.12,4.12,0,0,1,3-1.25,4.28,4.28,0,0,1,3.16,1.13,3.87,3.87,0,0,1,1.11,2.89A3.64,3.64,0,0,1,511.79,163.49Zm-4.05-3.64a2.6,2.6,0,0,0-1.87.72,2.67,2.67,0,0,0-.82,1.71h5.21a2.38,2.38,0,0,0-.63-1.69A2.47,2.47,0,0,0,507.74,159.85Z"/><path class="cls-1" d="M519.41,168l-2.56-3.43-2.3,3.43H512.6l3.42-4.82-3.14-4.6h1.88l2.11,3.24,2.37-3.24h1.84l-3.41,4.6,3.74,4.82Z"/><path class="cls-1" d="M450.19,189.85H447.6V177c1.65-.06,2.71-.09,3.17-.09a5.65,5.65,0,0,1,4.27,1.64,6.06,6.06,0,0,1,1.58,4.37Q456.62,189.85,450.19,189.85Zm-.83-11.3v9.63a9.89,9.89,0,0,0,1.46.09,3.44,3.44,0,0,0,2.9-1.39,6.22,6.22,0,0,0,1-3.84q0-4.57-4.1-4.57C450.5,178.47,450.07,178.5,449.36,178.55Z"/><path class="cls-1" d="M463.62,182a1.91,1.91,0,0,0-1.1-.37,2,2,0,0,0-1.55.81,3,3,0,0,0-.66,2v5.4h-1.67v-9.41h1.67v1.5a2.92,2.92,0,0,1,2.71-1.68,7.33,7.33,0,0,1,1.3.16Z"/><path class="cls-1" d="M466.31,189.85v-8H465v-1.4h3v9.41Zm.91-13a1,1,0,0,1,.74.3,1,1,0,0,1,.3.72,1,1,0,0,1-1,1,1,1,0,0,1-.72-.3,1.05,1.05,0,0,1,0-1.47A1,1,0,0,1,467.22,176.88Z"/><path class="cls-1" d="M474,190h-.44l-4-9.61h1.83l2.49,6.59,2.54-6.59h1.75Z"/><path class="cls-1" d="M487.38,185.3h-6.79a3.36,3.36,0,0,0,.91,2.54,2.81,2.81,0,0,0,2.05.78,3.51,3.51,0,0,0,2.4-.84l.7,1.21a3.13,3.13,0,0,1-1.19.67,6.56,6.56,0,0,1-2.23.36,4.2,4.2,0,0,1-3-1.2,4.71,4.71,0,0,1-1.38-3.57,5,5,0,0,1,1.42-3.73,4.1,4.1,0,0,1,3-1.26,4.29,4.29,0,0,1,3.15,1.13,3.88,3.88,0,0,1,1.11,2.9A3.63,3.63,0,0,1,487.38,185.3Zm-4.05-3.63a2.63,2.63,0,0,0-1.88.72,2.56,2.56,0,0,0-.81,1.7h5.21a2.41,2.41,0,0,0-.63-1.69A2.49,2.49,0,0,0,483.33,181.67Z"/><path class="cls-1" d="M494.38,182a1.91,1.91,0,0,0-1.1-.37,2,2,0,0,0-1.55.81,3,3,0,0,0-.66,2v5.4H489.4v-9.41h1.67v1.5a2.92,2.92,0,0,1,2.72-1.68,7.34,7.34,0,0,1,1.29.16Z"/><path class="cls-1" d="M505.49,189.85h-3.67V177c1.56-.07,2.69-.11,3.38-.11a4.7,4.7,0,0,1,3,.82,2.83,2.83,0,0,1,1,2.35,2.39,2.39,0,0,1-.67,1.64,2.8,2.8,0,0,1-1.47.92,4,4,0,0,1,2.23,1.22,3.58,3.58,0,0,1,.69,2.32,3.32,3.32,0,0,1-1.24,2.71A5,5,0,0,1,505.49,189.85Zm-1.91-11.47v3.7c.37,0,.82,0,1.37,0,1.66,0,2.49-.67,2.49-2,0-1.19-.76-1.78-2.29-1.78C504.56,178.32,504,178.34,503.58,178.38Zm0,5.06v4.91q.9.09,1.38.09a3.77,3.77,0,0,0,2.42-.62,2.41,2.41,0,0,0,.76-2,2.22,2.22,0,0,0-.73-1.85,3.81,3.81,0,0,0-2.42-.6Z"/><path class="cls-1" d="M512.68,189.85v-8h-1.29v-1.4h3v9.41Zm.92-13a1,1,0,0,1,.73.3,1,1,0,0,1,.3.72,1,1,0,0,1-1,1,1,1,0,0,1-.73-.3,1,1,0,0,1,.73-1.76Z"/><path class="cls-1" d="M517.6,181.75h-1.09v-1.31h1.09v-2l1.67-.64v2.61h2.59v1.31h-2.59v4.68a2.81,2.81,0,0,0,.4,1.69,1.57,1.57,0,0,0,1.29.5,3.07,3.07,0,0,0,1.33-.33l.24,1.47a9,9,0,0,1-2.27.26,2.45,2.45,0,0,1-1.89-.83,3,3,0,0,1-.77-2.09Z"/><path class="cls-1" d="M376.2,42.36H332.54a8.8,8.8,0,0,1,0-17.59H376.2a8.8,8.8,0,0,1,0,17.59ZM332.54,25.19a8.38,8.38,0,1,0,0,16.75H376.2a8.38,8.38,0,1,0,0-16.75Z"/><path class="cls-1" d="M384.78,58.76a.2.2,0,0,1-.16-.07L371,41.94h5.2a8.38,8.38,0,1,0,0-16.75h-5.15l11.72-18a.21.21,0,0,1,.29-.06.2.2,0,0,1,.06.29l-11.3,17.39h4.38a8.8,8.8,0,0,1,0,17.59h-4.33l13.07,16.06a.21.21,0,0,1,0,.3A.18.18,0,0,1,384.78,58.76Z"/><path class="cls-1" d="M377.32,49.6H328.26a16.55,16.55,0,0,1,0-33.1h48.55a.22.22,0,0,1,.21.21.21.21,0,0,1-.21.21H328.26a16.13,16.13,0,1,0,0,32.26h49.06a.21.21,0,0,1,.21.21A.21.21,0,0,1,377.32,49.6Z"/><path class="cls-1" d="M328.23,151.4a63.45,63.45,0,0,1-16.64-2.55l-.69-.21.7-.19a52,52,0,0,0,8.62-3.25c4.08-2,9.27-5.29,10.82-9.83,2.48-7.32.36-13.23-2.86-22.17-.69-1.92-1.4-3.91-2.15-6.11-1.11-3.31-1.92-6.47-2.71-9.53-1.11-4.36-2.07-8.12-3.6-10.94l-.07-.12.09-.11C325.55,80.07,333.77,73,340,75c4,1.29,6.55,6.25,7.56,14.74,2.47,20.67,5,42-2.72,54.77C341.52,149.88,334.78,151.4,328.23,151.4Zm-15.82-2.74c4.11,1.16,25.4,6.52,32-4.4,7.66-12.6,5.12-33.9,2.67-54.5-1-8.31-3.44-13.16-7.28-14.4-3.29-1.06-9.37,0-19.68,11.2,1.52,2.84,2.47,6.58,3.58,10.9.78,3.05,1.58,6.21,2.7,9.5.74,2.2,1.45,4.18,2.14,6.1,3.25,9,5.39,15,2.86,22.44-1.59,4.68-6.88,8.07-11,10.08A54.94,54.94,0,0,1,312.41,148.66Z"/><path class="cls-1" d="M236.1,48.61a.22.22,0,0,1-.21-.21V17.24a.21.21,0,0,1,.21-.21.21.21,0,0,1,.21.21V48.4A.21.21,0,0,1,236.1,48.61Z"/><path class="cls-1" d="M393.15,25.94h-3.86a.92.92,0,1,0,0,1.83h3.86a.92.92,0,1,0,0-1.83Z"/><path class="cls-1" d="M393.15,30.41h-3.86a.92.92,0,1,0,0,1.83h3.86a.92.92,0,1,0,0-1.83Z"/><path class="cls-1" d="M393.15,34.89h-3.86a.92.92,0,1,0,0,1.83h3.86a.92.92,0,1,0,0-1.83Z"/><path class="cls-1" d="M393.15,39.36h-3.86a.92.92,0,1,0,0,1.83h3.86a.92.92,0,1,0,0-1.83Z"/><path class="cls-1" d="M401.86,25.94H398a.92.92,0,1,0,0,1.83h3.86a.92.92,0,1,0,0-1.83Z"/><path class="cls-1" d="M401.86,30.41H398a.92.92,0,1,0,0,1.83h3.86a.92.92,0,1,0,0-1.83Z"/><path class="cls-1" d="M401.86,34.89H398a.92.92,0,1,0,0,1.83h3.86a.92.92,0,1,0,0-1.83Z"/><path class="cls-1" d="M401.86,39.36H398a.92.92,0,1,0,0,1.83h3.86a.92.92,0,1,0,0-1.83Z"/><path class="cls-1" d="M378.94,176.1H297V160h83.73Zm-79.94-2h78.15L378.5,162H299Z"/><path class="cls-1" d="M343.61,8.73H325.26a3.24,3.24,0,1,1,0-6.48h2.06A3.24,3.24,0,0,1,330.41,0h8a3.23,3.23,0,0,1,3.08,2.25h2.07a3.24,3.24,0,1,1,0,6.48ZM325.26,4.25a1.24,1.24,0,1,0,0,2.48h18.35a1.24,1.24,0,1,0,0-2.48H339.7v-1A1.25,1.25,0,0,0,338.46,2h-8a1.25,1.25,0,0,0-1.25,1.25v1Z"/><path class="cls-1" d="M267.42,52.14H248.51a25.9,25.9,0,0,1-5.54-.73L223,46a4.75,4.75,0,0,1-3.35-4.39V24.3a4.79,4.79,0,0,1,3.33-4.41l20-5.68a24.11,24.11,0,0,1,5.54-.78h18.91ZM248.51,15.52a22,22,0,0,0-5,.69l-20,5.68a2.73,2.73,0,0,0-1.82,2.41V41.59A2.69,2.69,0,0,0,223.5,44l20,5.43a23.3,23.3,0,0,0,5,.66h16.83V15.52Z"/><path class="cls-1" d="M221.64,41.41l-12.85-4.58V28.75l12.85-4.58Zm-10.77-6,8.68,3.1V27.12l-8.68,3.1Z"/><path class="cls-1" d="M285.24,56l-.37,0-15.93-1.59a4.08,4.08,0,0,1-3.6-4V15.53a4.09,4.09,0,0,1,3.6-4L284.87,10a3.44,3.44,0,0,1,3.81,3.45V52.5A3.42,3.42,0,0,1,285.24,56ZM269.15,13.61a2,2,0,0,0-1.73,1.92V50.38a2,2,0,0,0,1.73,1.91l15.93,1.59a1.39,1.39,0,0,0,1.08-.34,1.37,1.37,0,0,0,.44-1V13.4a1.4,1.4,0,0,0-.44-1,1.38,1.38,0,0,0-1.08-.33Z"/><path class="cls-1" d="M296.84,58.17h-5a5.2,5.2,0,0,1-5.2-5.2V13.19A5.2,5.2,0,0,1,291.8,8h5a5.21,5.21,0,0,1,5.21,5.2V53A5.21,5.21,0,0,1,296.84,58.17Zm-5-48.1a3.12,3.12,0,0,0-3.12,3.12V53a3.12,3.12,0,0,0,3.12,3.12h5A3.13,3.13,0,0,0,300,53V13.19a3.13,3.13,0,0,0-3.13-3.12Z"/><path class="cls-1" d="M379,176.14H297V159.6l14.21-11.89.22-.06c.16,0,16-4.26,18.86-12.55,2.39-7,.31-12.84-2.85-21.62-.69-1.92-1.41-3.91-2.16-6.12-1.12-3.34-2-6.67-2.73-9.6-2.14-8.38-3.68-14.43-9.47-15.25l-2-.3,1.45-1.46c.1-.1,9.78-10.09,4.91-18.31l-.44-.75a71.67,71.67,0,0,1-16.3-4.58l-.62-.27V9.33l.62-.27a69.12,69.12,0,0,1,14.86-4.33l.54-.1.39.39a5.51,5.51,0,0,0,3.93,1.63h35.73a5.57,5.57,0,0,0,4.81-2.8l.33-.58.67.06a217.5,217.5,0,0,1,47.22,9.44l.72.23v2.79a20,20,0,0,1,0,34.58v2.79l-.72.23a215.26,215.26,0,0,1-39.78,8.66,9.16,9.16,0,0,0-6.9,4.42c-1.93,3.32-3.11,10.08,2.21,23.37,5.72,14.3,4.09,29.91,3,40.24-.47,4.49-.84,8-.54,10.21,1,6.87,13.71,9.64,13.84,9.67l.92.2ZM299,174.06h78.07l2.48-22.28c-3.2-.83-13.55-4-14.55-11.2-.34-2.44,0-6.09.53-10.72,1.06-10.12,2.65-25.42-2.87-39.24-4.46-11.14-5.18-19.85-2.08-25.2A11.13,11.13,0,0,1,369.05,60a213.31,213.31,0,0,0,38.69-8.33V49.14l.54-.29a18,18,0,0,0,0-31.54l-.54-.29v-2.5a215.68,215.68,0,0,0-45.42-9.06,7.63,7.63,0,0,1-6.25,3.27H320.34a7.6,7.6,0,0,1-5-1.86,67.92,67.92,0,0,0-13.27,3.83V55.47a72.4,72.4,0,0,0,15.66,4.25l.48.08.93,1.58c2.38,4,2.2,8.91-.5,14.17a29.89,29.89,0,0,1-3.53,5.31c5.71,1.92,7.44,8.67,9.41,16.38.78,3,1.58,6.19,2.69,9.45.74,2.19,1.45,4.17,2.14,6.09,3.3,9.19,5.49,15.26,2.86,23-3,8.87-17.94,13.25-20.07,13.83l-13.11,11ZM408.78,52.4Z"/><path class="cls-1" d="M313.19,82.52h-5.9c-2.15,0-3.72-1-3.72-2.31V78.94a1,1,0,0,1,1-1c.49,0,2.11-2.48,2.11-8s-1.62-8-2.11-8a1,1,0,0,1-1-1V59.65c0-1.34,1.57-2.31,3.72-2.31a1,1,0,1,1,0,2.08,3.07,3.07,0,0,0-1.64.38v.33c2.16,1.09,3.15,5.58,3.15,9.8s-1,8.71-3.15,9.8v.32a3.05,3.05,0,0,0,1.64.38h5.9a1,1,0,0,1,0,2.09Z"/><path class="cls-1" d="M376.2,43.19H332.54a9.63,9.63,0,1,1,0-19.25H376.2a9.63,9.63,0,0,1,0,19.25ZM332.54,26a7.55,7.55,0,0,0,0,15.09H376.2a7.55,7.55,0,0,0,0-15.09Z"/><path class="cls-1" d="M384.78,59.6a1,1,0,0,1-.8-.39l-14.73-18.1h6.95a7.55,7.55,0,0,0,0-15.09h-6.68L382.08,6.69a1,1,0,1,1,1.74,1.14L373.35,23.94h2.85a9.63,9.63,0,0,1,0,19.25h-2.58l12,14.71a1,1,0,0,1-.81,1.7Z"/><path class="cls-1" d="M377.32,50.43H328.26a17.38,17.38,0,1,1,0-34.76h48.55a1,1,0,1,1,0,2.08H328.26a15.3,15.3,0,0,0,0,30.6h49.06a1,1,0,1,1,0,2.08Z"/><path class="cls-1" d="M328.26,152.28A61.79,61.79,0,0,1,314,150.37a1.81,1.81,0,0,1-.14-3.47c4.2-1.42,14.22-5.4,16.4-11.8,2.39-7,.31-12.84-2.85-21.62-.69-1.92-1.41-3.91-2.16-6.12-1.12-3.34-2-6.66-2.72-9.59-1.11-4.31-2.06-8-3.54-10.75l-.34-.63.47-.54c6-6.52,14.5-13.81,21.1-11.68,4.35,1.41,7.08,6.6,8.14,15.44,2.48,20.81,5,42.33-2.84,55.3C342,150.65,335.05,152.28,328.26,152.28Zm-12.87-3.71a57.44,57.44,0,0,0,14.24,1.6c6.95-.25,11.7-2.38,14.1-6.34,7.51-12.36,5-33.52,2.55-54-.95-8-3.21-12.57-6.71-13.7-4.24-1.38-10.77,2.36-18.41,10.54a56.86,56.86,0,0,1,3.37,10.55c.78,3,1.58,6.18,2.69,9.44.74,2.19,1.45,4.17,2.14,6.09,3.3,9.19,5.49,15.26,2.86,23C330,142.43,321.06,146.56,315.39,148.57Zm-1.21-.69Z"/><path class="cls-1" d="M236.1,49a.62.62,0,0,1-.62-.62V17.24a.63.63,0,1,1,1.25,0V48.4A.63.63,0,0,1,236.1,49Z"/><path class="cls-1" d="M236.1,49.4a1,1,0,0,1-1-1V17.24a1,1,0,0,1,2,0V48.4A1,1,0,0,1,236.1,49.4Zm0-32.41a.25.25,0,0,0-.25.25V48.4c0,.27.5.27.5,0V17.24A.25.25,0,0,0,236.1,17Z"/><path class="cls-1" d="M393.15,25.94h-3.86a.92.92,0,1,0,0,1.83h3.86a.92.92,0,1,0,0-1.83Z"/><path class="cls-1" d="M393.15,30.41h-3.86a.92.92,0,1,0,0,1.83h3.86a.92.92,0,1,0,0-1.83Z"/><path class="cls-1" d="M393.15,34.89h-3.86a.92.92,0,1,0,0,1.83h3.86a.92.92,0,1,0,0-1.83Z"/><path class="cls-1" d="M393.15,39.36h-3.86a.92.92,0,1,0,0,1.83h3.86a.92.92,0,1,0,0-1.83Z"/><path class="cls-1" d="M401.86,25.94H398a.92.92,0,1,0,0,1.83h3.86a.92.92,0,1,0,0-1.83Z"/><path class="cls-1" d="M401.86,30.41H398a.92.92,0,1,0,0,1.83h3.86a.92.92,0,1,0,0-1.83Z"/><path class="cls-1" d="M401.86,34.89H398a.92.92,0,1,0,0,1.83h3.86a.92.92,0,1,0,0-1.83Z"/><path class="cls-1" d="M401.86,39.36H398a.92.92,0,1,0,0,1.83h3.86a.92.92,0,1,0,0-1.83Z"/><path class="cls-1" d="M51.11,146.4H36.84V103.19l-4.43-4.42H.11l.13-1.12c0-.24,3.27-24,37.41-30.78h0c1.48-.3,6-1.18,25.7,14.5,8.58,6.83,16.39,13.92,18,15.39L212.07,94a20.6,20.6,0,1,1-.08,41.2L81.18,132Zm-12.27-2H50.65l30.1-14.46H81L212,133.21a18.6,18.6,0,1,0,.07-37.2L80.58,98.77l-.29-.27c-9.43-8.71-35.44-31-42.25-29.67h0C9.62,74.45,3.56,92.13,2.45,96.77H33.24l5.6,5.6Zm175.51-24.05a4.85,4.85,0,1,1,4.84-4.85A4.85,4.85,0,0,1,214.35,120.35Zm0-7.69a2.85,2.85,0,1,0,2.84,2.84A2.85,2.85,0,0,0,214.35,112.66Z"/><path class="cls-1" d="M38.26,131.94h-1c-31.54,0-36.95-23.74-37-24L0,106.75H32.66l5.6,5.6ZM2.55,108.75c1.46,4.65,8.37,20.77,33.71,21.19V113.18l-4.43-4.43Z"/><path class="cls-1" d="M66.48,125.1H53.25a4.93,4.93,0,0,1-4.92-4.92v-17a4.92,4.92,0,0,1,4.92-4.92H66.48a4.92,4.92,0,0,1,4.92,4.92v17A4.92,4.92,0,0,1,66.48,125.1ZM53.25,100.22a2.92,2.92,0,0,0-2.92,2.92v17a2.92,2.92,0,0,0,2.92,2.92H66.48a2.92,2.92,0,0,0,2.92-2.92v-17a2.92,2.92,0,0,0-2.92-2.92Z"/><rect class="cls-1" x="49.33" y="118.53" width="21.07" height="2"/><rect class="cls-1" x="49.33" y="113.28" width="21.07" height="2"/><rect class="cls-1" x="49.33" y="108.04" width="21.07" height="2"/><rect class="cls-1" x="49.33" y="102.79" width="21.07" height="2"/><path class="cls-1" d="M463.92,130.82H434.5l-.29-.28c-.17-.17-4.16-4.19-4.16-16.79s3.87-16.61,4-16.77l.29-.3h29.45c2,0,5.78,5,8,8.22,4.25,0,30.78-.07,32.2,0a9.34,9.34,0,0,1,2.85.93,10.72,10.72,0,0,0,4.24,1.25c2.28-.1,5.61-2,5.64-2l.23-.13h.28l11.88,0h.68c1.4,0,3.32-.12,4,1.59.64,1.52.52,12.08,0,13.56-.64,1.91-3.36,2-3.66,2l-13.83.22-.27-.21c-1.32-1-3.59-2.37-4.54-2.37s-4.25,1.32-6.21,2.26l-.21.1h-33c-.83,0-2.61,2.6-3.67,4.15-1.6,2.33-3,4.34-4.5,4.62Zm-28.55-2h28.34c.73-.24,2.18-2.35,3.15-3.76,1.77-2.58,3.44-5,5.32-5h32.56c1.2-.57,5.14-2.36,6.87-2.36s4.46,1.84,5.46,2.57l13.16-.21c.65,0,1.66-.24,1.78-.6.35-1.1.48-10.91,0-12.17-.17-.39-1-.39-2.12-.36l-.75,0-11.62,0c-.88.48-3.92,2.07-6.33,2.17a12.19,12.19,0,0,1-5.13-1.4,8.84,8.84,0,0,0-2.14-.77c-1.16-.06-21.85,0-32.62,0h-.53l-.3-.44c-2.74-4-5.81-7.6-6.71-7.78H435.27c-.77,1.08-3.22,5.25-3.22,15.07S434.57,127.75,435.37,128.82Z"/><path class="cls-1" d="M471.62,121.86a5.28,5.28,0,0,1-2.15-4.14,5.66,5.66,0,0,1,1.34-3.55,6.42,6.42,0,0,1-1.34-4,7.69,7.69,0,0,1,2-5l1.43,1.39a5.82,5.82,0,0,0-1.43,3.63,4.31,4.31,0,0,0,1.35,3.19l.93.78-.94.77a4,4,0,0,0-1.34,2.76,3.3,3.3,0,0,0,1.28,2.49Z"/><path class="cls-1" d="M505.85,121.51l-1.77-.94a7.55,7.55,0,0,0,.63-3.07,5.82,5.82,0,0,0-1.18-2.82l-.49-.62.51-.62a6.53,6.53,0,0,0,1.17-3.76,3.55,3.55,0,0,0-1.27-3l1.09-1.68a5.5,5.5,0,0,1,2.18,4.63,8.74,8.74,0,0,1-1.19,4.39,6.88,6.88,0,0,1,1.18,3.44A9.4,9.4,0,0,1,505.85,121.51Z"/><rect class="cls-1" x="472.18" y="113.07" width="32.14" height="2"/><path class="cls-1" d="M516.18,122.08a4.83,4.83,0,0,1-1.72-3.94,8.79,8.79,0,0,1,.81-3.69,11.85,11.85,0,0,1-.81-4.39,9.58,9.58,0,0,1,2-4.8l1.55,1.27a7.49,7.49,0,0,0-1.6,3.63,10.06,10.06,0,0,0,.83,3.93l.21.49-.28.46a6.34,6.34,0,0,0-.76,3.11,2.84,2.84,0,0,0,.86,2.28Z"/><path class="cls-1" d="M531.1,121.56l-1.71-1a6,6,0,0,0,.72-2.8,7.16,7.16,0,0,0-.84-3.14l-.34-.6.44-.54a5.44,5.44,0,0,0,.73-3.39,4.39,4.39,0,0,0-1.5-3.29l1.15-1.63A6.3,6.3,0,0,1,532.1,110a8,8,0,0,1-.82,4.17,8.94,8.94,0,0,1,.83,3.59A8,8,0,0,1,531.1,121.56Z"/><rect class="cls-1" x="516.37" y="113.07" width="13.77" height="2"/><path class="cls-1" d="M462.84,130c-3.86-21.23-.12-32.19,0-32.65l1.89.66c0,.11-3.71,11,0,31.63Z"/><rect class="cls-1" x="431.05" y="118.11" width="31.36" height="2"/><rect class="cls-1" x="431.66" y="103.54" width="30.46" height="2"/></g></g></svg>